<?xml version="1.0" encoding="UTF-8"?><svg id="_レイヤー_1" xmlns="http://www.w3.org/2000/svg" xmlns:xlink="http://www.w3.org/1999/xlink" viewBox="0 0 1440 1024"><defs><style>.cls-1{fill:url(#_10_dpi_40_);}.cls-1,.cls-2,.cls-3,.cls-4,.cls-5,.cls-6,.cls-7{stroke-width:0px;}.cls-2,.cls-8,.cls-9{fill:none;}.cls-8{stroke-width:9.19px;}.cls-8,.cls-9{stroke:#321b04;stroke-miterlimit:10;}.cls-3{fill:url(#_10_dpi_40_-2);}.cls-4{fill:url(#_10_dpi_40_-3);}.cls-9{stroke-width:10.74px;}.cls-5{fill:#321b04;}.cls-6{fill:#e98340;}.cls-7{fill:#e9ede5;}</style><pattern id="_10_dpi_40_" x="0" y="0" width="28.35" height="28.35" patternTransform="translate(2006.4 2159.39) scale(1.26)" patternUnits="userSpaceOnUse" viewBox="0 0 28.35 28.35"><rect class="cls-2" x="0" width="28.35" height="28.35"/><path class="cls-5" d="m28.57,31.46c1.59,0,2.88-1.29,2.88-2.88s-1.29-2.88-2.88-2.88-2.88,1.29-2.88,2.88,1.29,2.88,2.88,2.88Z"/><path class="cls-5" d="m14.17,31.46c1.59,0,2.88-1.29,2.88-2.88s-1.29-2.88-2.88-2.88-2.88,1.29-2.88,2.88,1.29,2.88,2.88,2.88Z"/><path class="cls-5" d="m28.57,17.06c1.59,0,2.88-1.29,2.88-2.88s-1.29-2.88-2.88-2.88-2.88,1.29-2.88,2.88,1.29,2.88,2.88,2.88Z"/><path class="cls-5" d="m14.17,17.06c1.59,0,2.88-1.29,2.88-2.88s-1.29-2.88-2.88-2.88-2.88,1.29-2.88,2.88,1.29,2.88,2.88,2.88Z"/><path class="cls-5" d="m6.97,24.26c1.59,0,2.88-1.29,2.88-2.88s-1.29-2.88-2.88-2.88-2.88,1.29-2.88,2.88,1.29,2.88,2.88,2.88Z"/><path class="cls-5" d="m21.37,24.26c1.59,0,2.88-1.29,2.88-2.88s-1.29-2.88-2.88-2.88-2.88,1.29-2.88,2.88,1.29,2.88,2.88,2.88Z"/><path class="cls-5" d="m6.97,9.86c1.59,0,2.88-1.29,2.88-2.88s-1.29-2.88-2.88-2.88-2.88,1.29-2.88,2.88,1.29,2.88,2.88,2.88Z"/><path class="cls-5" d="m21.37,9.86c1.59,0,2.88-1.29,2.88-2.88s-1.29-2.88-2.88-2.88-2.88,1.29-2.88,2.88,1.29,2.88,2.88,2.88Z"/><path class="cls-5" d="m.23,31.46c1.59,0,2.88-1.29,2.88-2.88s-1.29-2.88-2.88-2.88-2.88,1.29-2.88,2.88,1.29,2.88,2.88,2.88Z"/><path class="cls-5" d="m.23,17.06c1.59,0,2.88-1.29,2.88-2.88s-1.29-2.88-2.88-2.88-2.88,1.29-2.88,2.88,1.29,2.88,2.88,2.88Z"/><path class="cls-5" d="m28.57,3.11c1.59,0,2.88-1.29,2.88-2.88s-1.29-2.88-2.88-2.88-2.88,1.29-2.88,2.88,1.29,2.88,2.88,2.88Z"/><path class="cls-5" d="m14.17,3.11c1.59,0,2.88-1.29,2.88-2.88s-1.29-2.88-2.88-2.88-2.88,1.29-2.88,2.88,1.29,2.88,2.88,2.88Z"/><path class="cls-5" d="m.23,3.11C1.82,3.11,3.11,1.82,3.11.23S1.82-2.65.23-2.65-2.65-1.36-2.65.23-1.36,3.11.23,3.11Z"/></pattern><pattern id="_10_dpi_40_-2" patternTransform="translate(580.36 638.31) scale(1.08)" xlink:href="#_10_dpi_40_"/><pattern id="_10_dpi_40_-3" patternTransform="translate(628.5 630.72) scale(1.08)" xlink:href="#_10_dpi_40_"/></defs><path class="cls-7" d="m401.63,633.32h0c0-19.72-15.98-35.7-35.7-35.7h-17.85v-31.32c0-8.42,6.83-15.25,15.25-15.25h73.99c19.72,0,35.7-15.98,35.7-35.7h0c0-19.72-15.98-35.7-35.7-35.7h-73.99c-8.42,0-15.25-6.83-15.25-15.25v-73.99c0-19.72-15.98-35.7-35.7-35.7h0c-19.72,0-35.7,15.98-35.7,35.7v73.99c0,8.42-6.83,15.25-15.25,15.25h-73.99c-19.72,0-35.7,15.98-35.7,35.7h0c0,19.72,15.98,35.7,35.7,35.7h73.99c8.42,0,15.25,6.83,15.25,15.25v67.02c0,19.72,15.98,35.7,35.7,35.7h53.55c19.72,0,35.7-15.98,35.7-35.7Z"/><path class="cls-5" d="m365.93,676.88h-53.55c-24.02,0-43.56-19.54-43.56-43.56v-67.02c0-4.08-3.32-7.39-7.39-7.39h-74c-24.02,0-43.56-19.54-43.56-43.56s19.54-43.56,43.56-43.56h74c4.08,0,7.39-3.32,7.39-7.39v-73.99c0-24.02,19.54-43.56,43.56-43.56s43.56,19.54,43.56,43.56v73.99c0,4.08,3.32,7.39,7.39,7.39h74c24.02,0,43.56,19.54,43.56,43.56s-19.54,43.56-43.56,43.56h-74c-4.08,0-7.39,3.32-7.39,7.39v23.45h9.99c24.02,0,43.56,19.54,43.56,43.56s-19.54,43.56-43.56,43.56Zm-178.5-189.37c-15.35,0-27.84,12.49-27.84,27.84s12.49,27.84,27.84,27.84h74c12.75,0,23.12,10.37,23.12,23.12v67.02c0,15.35,12.49,27.84,27.84,27.84h53.55c15.35,0,27.83-12.49,27.83-27.84s-12.49-27.84-27.83-27.84h-25.71v-39.18c0-12.75,10.37-23.12,23.12-23.12h74c15.35,0,27.84-12.49,27.84-27.84s-12.49-27.84-27.84-27.84h-74c-12.75,0-23.12-10.37-23.12-23.12v-73.99c0-15.35-12.49-27.84-27.83-27.84s-27.84,12.49-27.84,27.84v73.99c0,12.75-10.37,23.12-23.12,23.12h-74Z"/><path class="cls-5" d="m348.08,638.18c-4.34,0-7.86-3.52-7.86-7.86v-32.7c0-4.34,3.52-7.86,7.86-7.86s7.86,3.52,7.86,7.86v32.7c0,4.34-3.52,7.86-7.86,7.86Z"/><circle class="cls-6" cx="780.44" cy="534.23" r="56.57"/><path class="cls-5" d="m780.44,483.03c28.23,0,51.2,22.97,51.2,51.2s-22.97,51.2-51.2,51.2-51.2-22.97-51.2-51.2,22.97-51.2,51.2-51.2m0-10.74c-34.21,0-61.93,27.73-61.93,61.93s27.73,61.93,61.93,61.93,61.93-27.73,61.93-61.93-27.73-61.93-61.93-61.93h0Z"/><path class="cls-7" d="m780.44,574.22c-22.05,0-40-17.94-40-40s17.94-40,40-40,40,17.94,40,40-17.94,40-40,40Z"/><path class="cls-1" d="m780.44,574.22c-22.05,0-40-17.94-40-40s17.94-40,40-40,40,17.94,40,40-17.94,40-40,40Z"/><path class="cls-5" d="m780.44,498.03c19.96,0,36.2,16.24,36.2,36.2s-16.24,36.2-36.2,36.2-36.2-16.24-36.2-36.2,16.24-36.2,36.2-36.2m0-7.59c-24.19,0-43.79,19.61-43.79,43.79s19.61,43.79,43.79,43.79,43.79-19.61,43.79-43.79-19.61-43.79-43.79-43.79h0Z"/><path class="cls-6" d="m686.91,505.19c20.71,0,20.71-24.55,20.71-24.55v-18.28s-42.22,0-42.22,0v18.28s0,24.55,21.51,24.55Z"/><path class="cls-5" d="m696.87,473.1v7.54s-.1,4.21-1.74,8.1c-2,4.74-4.73,5.71-8.23,5.71-4.43,0-6.98-1.58-8.81-5.45-1.81-3.85-1.96-8.11-1.97-8.43v-7.48h20.74m10.74-10.74h-42.22v18.28s0,24.55,21.51,24.55h0c20.71,0,20.71-24.55,20.71-24.55v-18.28h0Z"/><line class="cls-9" x1="686.5" y1="496.64" x2="686.5" y2="608.6"/><path class="cls-5" d="m691.87,462.36h-10.74v-15.6c0-2.97,2.4-5.37,5.37-5.37h0c2.97,0,5.37,2.4,5.37,5.37v15.6Z"/><path class="cls-5" d="m676.13,462.36h-10.74v-15.6c0-2.97,2.4-5.37,5.37-5.37h0c2.97,0,5.37,2.4,5.37,5.37v15.6Z"/><path class="cls-5" d="m707.61,462.36h-10.74v-15.6c0-2.97,2.4-5.37,5.37-5.37h0c2.97,0,5.37,2.4,5.37,5.37v15.6Z"/><polygon class="cls-6" points="858.92 528.86 858.92 463.98 879.66 450.17 879.66 528.86 858.92 528.86"/><path class="cls-5" d="m874.29,460.2v63.29h-10v-56.63l10-6.66m5.69-15.69c-.94,0-1.9.27-2.78.85l-21.41,14.26c-1.4.93-2.24,2.51-2.24,4.19v65.39c0,2.78,2.25,5.04,5.04,5.04h26.44v-84.68c0-2.96-2.43-5.04-5.05-5.04h0Z"/><rect class="cls-5" x="874.54" y="534.23" width="10.48" height="73.12"/><polygon class="cls-6" points="974.82 592.06 965.38 549.1 1046.35 549.48 1039.28 592.06 974.82 592.06"/><path class="cls-5" d="m971.1,553.72l69.83.33-5.55,33.42h-56.86l-7.42-33.75m-11.44-9.24l11.47,52.18h72.04l8.6-51.75-92.11-.43h0Z"/><path class="cls-7" d="m1022.42,565.56c-9.77,0-19.11-4.2-25.62-11.51l-1.61-1.81-2.4.3c-.28.04-.58.05-.92.05-1.83,0-3.57-.58-5.01-1.67l-2.25-1.7-2.53,1.23c-2.92,1.42-6.05,2.14-9.32,2.14-11.75,0-21.31-9.56-21.31-21.31,0-7,3.45-13.57,9.22-17.57l2.45-1.69-.55-2.93c-.22-1.19-.33-2.44-.33-3.73,0-11.75,9.56-21.31,21.31-21.31h4.59v-4.6c0-11.75,9.57-21.31,21.32-21.31s21.31,9.56,21.31,21.31v.18s-.38,4.08-.38,4.08l4.01.8c9.78,2.06,16.88,10.83,16.88,20.85,0,1.45-.15,2.91-.44,4.35l-.37,1.81.98,1.56c3.42,5.44,5.23,11.73,5.23,18.2,0,18.9-15.38,34.27-34.27,34.27Z"/><path class="cls-3" d="m1022.42,565.56c-9.77,0-19.11-4.2-25.62-11.51l-1.61-1.81-2.4.3c-.28.04-.58.05-.92.05-1.83,0-3.57-.58-5.01-1.67l-2.25-1.7-2.53,1.23c-2.92,1.42-6.05,2.14-9.32,2.14-11.75,0-21.31-9.56-21.31-21.31,0-7,3.45-13.57,9.22-17.57l2.45-1.69-.55-2.93c-.22-1.19-.33-2.44-.33-3.73,0-11.75,9.56-21.31,21.31-21.31h4.59v-4.6c0-11.75,9.57-21.31,21.32-21.31s21.31,9.56,21.31,21.31v.18s-.38,4.08-.38,4.08l4.01.8c9.78,2.06,16.88,10.83,16.88,20.85,0,1.45-.15,2.91-.44,4.35l-.37,1.81.98,1.56c3.42,5.44,5.23,11.73,5.23,18.2,0,18.9-15.38,34.27-34.27,34.27Z"/><path class="cls-5" d="m1009.47,462.75c9.2,0,16.69,7.47,16.72,16.66l-.75,7.92,8.03,1.69c7.67,1.62,13.23,8.49,13.23,16.35,0,1.14-.12,2.29-.35,3.42l-.74,3.62,1.96,3.12c2.96,4.71,4.52,10.15,4.52,15.75,0,16.36-13.31,29.68-29.68,29.68-8.46,0-16.55-3.63-22.19-9.97l-3.22-3.62-4.8.61c-.08.01-.2.02-.33.02-1.04,0-1.79-.4-2.24-.74l-4.5-3.4-5.07,2.47c-2.29,1.11-4.74,1.68-7.31,1.68-9.22,0-16.72-7.5-16.72-16.72,0-5.5,2.71-10.65,7.24-13.79l4.9-3.39-1.09-5.86c-.17-.91-.26-1.88-.26-2.89,0-9.22,7.5-16.72,16.72-16.72h9.19v-9.19c0-9.22,7.5-16.72,16.73-16.72m0-9.19c-14.31,0-25.92,11.6-25.92,25.91-14.31,0-25.91,11.6-25.91,25.91,0,1.56.13,3.09.41,4.57-6.77,4.68-11.2,12.49-11.2,21.34,0,14.31,11.6,25.91,25.91,25.91,4.06,0,7.91-.94,11.33-2.6,2.17,1.64,4.86,2.6,7.79,2.6.51,0,1-.03,1.49-.09,7.12,8,17.5,13.05,29.05,13.05,21.47,0,38.87-17.41,38.87-38.87,0-7.59-2.17-14.67-5.93-20.65.35-1.7.54-3.46.54-5.27,0-12.47-8.81-22.88-20.53-25.35.02-.19.02-.38.02-.56,0-14.31-11.6-25.91-25.91-25.91h0Z"/><path class="cls-6" d="m983.2,498.75c-10.16,0-18.43-8.27-18.43-18.43s8.27-18.43,18.43-18.43,18.43,8.27,18.43,18.43-8.27,18.43-18.43,18.43Z"/><path class="cls-5" d="m983.2,466.48c7.63,0,13.84,6.21,13.84,13.84s-6.21,13.84-13.84,13.84-13.84-6.21-13.84-13.84,6.21-13.84,13.84-13.84m0-9.19c-12.72,0-23.03,10.31-23.03,23.03s10.31,23.03,23.03,23.03,23.03-10.31,23.03-23.03-10.31-23.03-23.03-23.03h0Z"/><path class="cls-7" d="m1169.91,527.37c-35.92,0-37-10.69-37.36-14.2-1.8-17.68,28.65-35.87,66.48-39.72,4.86-.5,9.75-.75,14.52-.75,31.89,0,57.08,11.29,58.6,26.26.46,4.56-.69,11.29-16,16.96-13.49,5-33.92,7.54-50.21,9.2-15.01,1.53-26.47,2.24-36.04,2.24Z"/><path class="cls-4" d="m1169.91,527.37c-35.92,0-37-10.69-37.36-14.2-1.8-17.68,28.65-35.87,66.48-39.72,4.86-.5,9.75-.75,14.52-.75,31.89,0,57.08,11.29,58.6,26.26.46,4.56-.69,11.29-16,16.96-13.49,5-33.92,7.54-50.21,9.2-15.01,1.53-26.47,2.24-36.04,2.24Z"/><path class="cls-5" d="m1213.56,477.3c15.39,0,29.53,2.69,39.82,7.56,11.64,5.52,13.9,11.5,14.21,14.57.22,2.12.72,7.09-13.02,12.19-13,4.82-33.06,7.31-49.08,8.94-14.86,1.51-26.16,2.22-35.58,2.22-11.57,0-20.31-1.11-25.99-3.3-6.36-2.45-6.66-5.37-6.8-6.77-.63-6.2,4.8-13.42,14.89-19.82,12.15-7.7,29.02-12.98,47.49-14.86,4.71-.48,9.44-.72,14.05-.72h0m0-9.19c-4.86,0-9.88.25-14.98.77-41.08,4.18-72.68,24.21-70.59,44.75,1.43,14.01,18.3,18.33,41.93,18.33,11,0,23.46-.94,36.51-2.26,41.08-4.18,72.4-10.66,70.31-31.2-1.83-17.99-28.89-30.39-63.17-30.39h0Z"/><path class="cls-8" d="m1162.49,480.7c5.46,4.33,17.19,7.86,24.67,28.33"/><path class="cls-8" d="m1193.3,472.73c6.16,2.77,14.29,10.4,21.77,30.87"/><path class="cls-8" d="m1221.99,472.03c7.28,4.49,14.44,8.19,19.39,25.86"/><path class="cls-6" d="m1153.85,595.75c-7.08,0-11.7-2.29-14.54-7.2-4.99-8.65-2.63-21.16,6.66-35.23,9.91-15.01,26.31-29.6,46.18-41.07,21.58-12.46,44.65-19.6,63.31-19.6,14.35,0,24.72,4.26,29.18,11.99,2.86,4.95,5.01,13.14-9.18,27.1-12.21,12.01-33.09,24.71-49.93,34.42-23.86,13.77-53.57,29.59-71.68,29.59Z"/><path class="cls-5" d="m1255.46,488.05v9.19s0,0,0,0c17.06,0,23.11,6.07,25.2,9.69,1.46,2.53,4.87,8.44-8.43,21.53-11.84,11.65-32.41,24.14-49,33.72-23.36,13.49-52.36,28.97-69.38,28.97-6.81,0-9.16-2.48-10.56-4.91-8.29-14.36,10.68-46.65,51.16-70.02,20.9-12.07,43.14-18.99,61.01-18.99v-9.19m0,0c-18.74,0-42.46,6.85-65.61,20.22-42.33,24.44-66.74,61.41-54.52,82.57,3.85,6.66,10.24,9.5,18.52,9.5,18.02,0,44.97-13.45,73.98-30.2,42.33-24.44,73.01-46.64,60.79-67.8-5.54-9.59-17.64-14.29-33.16-14.29h0Z"/><path class="cls-8" d="m1156.62,538.53c7.99,2.03,22.38.15,40.38,18.63"/><path class="cls-8" d="m1186.03,514.98c7.99,0,20.48,4.3,38.48,22.78"/><path class="cls-8" d="m1216.66,500.31c10.04,1.32,19.56,1.84,33.49,18.52"/></svg>