<?xml version="1.0" encoding="UTF-8"?><svg id="design" xmlns="http://www.w3.org/2000/svg" xmlns:xlink="http://www.w3.org/1999/xlink" viewBox="0 0 283.46 283.46"><defs><style>.cls-1{fill:url(#_10_dpi_40_);}.cls-1,.cls-2,.cls-3,.cls-4,.cls-5{stroke-width:0px;}.cls-2{fill:none;}.cls-3{fill:#321b04;}.cls-4{fill:#eaede6;}.cls-5{fill:#e8b800;}</style><pattern id="_10_dpi_40_" x="0" y="0" width="28.35" height="28.35" patternTransform="translate(-1070.91 -278.14)" patternUnits="userSpaceOnUse" viewBox="0 0 28.35 28.35"><rect class="cls-2" x="0" width="28.35" height="28.35"/><path class="cls-3" d="m28.57,31.46c1.59,0,2.88-1.29,2.88-2.88s-1.29-2.88-2.88-2.88-2.88,1.29-2.88,2.88,1.29,2.88,2.88,2.88Z"/><path class="cls-3" d="m14.17,31.46c1.59,0,2.88-1.29,2.88-2.88s-1.29-2.88-2.88-2.88-2.88,1.29-2.88,2.88,1.29,2.88,2.88,2.88Z"/><path class="cls-3" d="m28.57,17.06c1.59,0,2.88-1.29,2.88-2.88s-1.29-2.88-2.88-2.88-2.88,1.29-2.88,2.88,1.29,2.88,2.88,2.88Z"/><path class="cls-3" d="m14.17,17.06c1.59,0,2.88-1.29,2.88-2.88s-1.29-2.88-2.88-2.88-2.88,1.29-2.88,2.88,1.29,2.88,2.88,2.88Z"/><path class="cls-3" d="m6.97,24.26c1.59,0,2.88-1.29,2.88-2.88s-1.29-2.88-2.88-2.88-2.88,1.29-2.88,2.88,1.29,2.88,2.88,2.88Z"/><path class="cls-3" d="m21.37,24.26c1.59,0,2.88-1.29,2.88-2.88s-1.29-2.88-2.88-2.88-2.88,1.29-2.88,2.88,1.29,2.88,2.88,2.88Z"/><path class="cls-3" d="m6.97,9.86c1.59,0,2.88-1.29,2.88-2.88s-1.29-2.88-2.88-2.88-2.88,1.29-2.88,2.88,1.29,2.88,2.88,2.88Z"/><path class="cls-3" d="m21.37,9.86c1.59,0,2.88-1.29,2.88-2.88s-1.29-2.88-2.88-2.88-2.88,1.29-2.88,2.88,1.29,2.88,2.88,2.88Z"/><path class="cls-3" d="m.23,31.46c1.59,0,2.88-1.29,2.88-2.88s-1.29-2.88-2.88-2.88-2.88,1.29-2.88,2.88,1.29,2.88,2.88,2.88Z"/><path class="cls-3" d="m.23,17.06c1.59,0,2.88-1.29,2.88-2.88s-1.29-2.88-2.88-2.88-2.88,1.29-2.88,2.88,1.29,2.88,2.88,2.88Z"/><path class="cls-3" d="m28.57,3.11c1.59,0,2.88-1.29,2.88-2.88s-1.29-2.88-2.88-2.88-2.88,1.29-2.88,2.88,1.29,2.88,2.88,2.88Z"/><path class="cls-3" d="m14.17,3.11c1.59,0,2.88-1.29,2.88-2.88s-1.29-2.88-2.88-2.88-2.88,1.29-2.88,2.88,1.29,2.88,2.88,2.88Z"/><path class="cls-3" d="m.23,3.11C1.82,3.11,3.11,1.82,3.11.23S1.82-2.65.23-2.65-2.65-1.36-2.65.23-1.36,3.11.23,3.11Z"/></pattern></defs><path class="cls-4" d="m122.62,195.39c-29.58,0-53.65-24.07-53.65-53.65s24.07-53.65,53.65-53.65,53.65,24.07,53.65,53.65-24.07,53.65-53.65,53.65Z"/><path class="cls-1" d="m122.62,195.39c-29.58,0-53.65-24.07-53.65-53.65s24.07-53.65,53.65-53.65,53.65,24.07,53.65,53.65-24.07,53.65-53.65,53.65Z"/><path class="cls-3" d="m122.62,92.33c27.24,0,49.4,22.16,49.4,49.4s-22.16,49.4-49.4,49.4-49.4-22.16-49.4-49.4,22.16-49.4,49.4-49.4m0-8.5c-31.98,0-57.91,25.93-57.91,57.91s25.93,57.91,57.91,57.91,57.91-25.93,57.91-57.91-25.93-57.91-57.91-57.91h0Z"/><path class="cls-5" d="m158.47,195.39c-.84,0-1.69-.02-2.54-.06-27.37-1.26-49.8-23.69-51.06-51.06-.68-14.83,4.57-28.89,14.79-39.59,9.24-9.67,21.38-15.42,34.56-16.44-.01.61,0,1.22.07,1.82.66,6.49,5.81,11.87,12.25,12.8.7.1,1.4.15,2.1.15,1.73,0,3.43-.31,5.04-.91,2.83,5.95,8.44,10.04,14.98,10.91-.1,1.86.08,3.73.52,5.58,1.81,7.52,8.14,13.41,15.75,14.67,1.06.18,2.14.26,3.21.26.94,0,1.89-.07,2.81-.21.04,0,.07,0,.11,0,.11,0,.41.05.44.26.41,2.69.62,5.43.62,8.16,0,29.58-24.07,53.65-53.65,53.65Z"/><path class="cls-3" d="m150.49,92.96c1.78,7.27,7.94,13.03,15.45,14.11.9.13,1.81.19,2.71.19,1,0,1.99-.08,2.96-.24,3.07,4.55,7.62,7.88,12.9,9.43.11,1.05.29,2.09.54,3.13,2.24,9.3,9.78,16.31,19.19,17.87,1.15.19,2.32.3,3.48.32.11,1.32.16,2.64.16,3.96,0,27.24-22.16,49.4-49.4,49.4-.78,0-1.56-.02-2.34-.05-25.2-1.16-45.84-21.81-47-47-.63-13.66,4.21-26.61,13.62-36.46,7.55-7.9,17.2-12.96,27.75-14.65m7.98-9.14c-32.89,0-59.37,27.42-57.84,60.64,1.36,29.67,25.44,53.74,55.11,55.11.91.04,1.83.06,2.73.06,31.98,0,57.91-25.92,57.91-57.91,0-2.99-.23-5.93-.67-8.8-.35-2.31-2.37-3.87-4.64-3.87-.24,0-.48.02-.73.05-.72.11-1.45.16-2.19.16-.82,0-1.66-.07-2.52-.21-5.99-.99-10.89-5.57-12.31-11.47-.54-2.24-.55-4.4-.16-6.42.23-1.17-.67-2.24-1.85-2.24h-.03c-6.84,0-12.63-4.51-14.56-10.72-.25-.79-.97-1.24-1.74-1.24-.35,0-.71.09-1.03.29-1.54.95-3.35,1.5-5.3,1.5-.49,0-.99-.04-1.5-.11-4.55-.65-8.16-4.44-8.62-9.02-.21-2.1.22-4.08,1.12-5.78-.39,0-.78-.03-1.17-.03h0Z"/><circle class="cls-3" cx="209.34" cy="113.99" r="9.41"/><circle class="cls-3" cx="192.41" cy="88.81" r="4.99"/><circle class="cls-3" cx="212.86" cy="94.2" r="3.51"/></svg>