<?xml version="1.0" encoding="UTF-8"?><svg id="_レイヤー_1" xmlns="http://www.w3.org/2000/svg" xmlns:xlink="http://www.w3.org/1999/xlink" viewBox="0 0 300 300"><defs><style>.cls-1{fill:url(#_10_dpi_40_);}.cls-1,.cls-2,.cls-3,.cls-4,.cls-5{stroke-width:0px;}.cls-2,.cls-6{fill:none;}.cls-6{stroke:#321b04;stroke-miterlimit:10;stroke-width:13.32px;}.cls-3{fill:#321b04;}.cls-4{fill:#e98340;}.cls-5{fill:#e9ede5;}</style><pattern id="_10_dpi_40_" x="0" y="0" width="28.35" height="28.35" patternTransform="translate(3303.64 4430.97) scale(1.57)" patternUnits="userSpaceOnUse" viewBox="0 0 28.35 28.35"><rect class="cls-2" x="0" width="28.35" height="28.35"/><path class="cls-3" d="m28.57,31.46c1.59,0,2.88-1.29,2.88-2.88s-1.29-2.88-2.88-2.88-2.88,1.29-2.88,2.88,1.29,2.88,2.88,2.88Z"/><path class="cls-3" d="m14.17,31.46c1.59,0,2.88-1.29,2.88-2.88s-1.29-2.88-2.88-2.88-2.88,1.29-2.88,2.88,1.29,2.88,2.88,2.88Z"/><path class="cls-3" d="m28.57,17.06c1.59,0,2.88-1.29,2.88-2.88s-1.29-2.88-2.88-2.88-2.88,1.29-2.88,2.88,1.29,2.88,2.88,2.88Z"/><path class="cls-3" d="m14.17,17.06c1.59,0,2.88-1.29,2.88-2.88s-1.29-2.88-2.88-2.88-2.88,1.29-2.88,2.88,1.29,2.88,2.88,2.88Z"/><path class="cls-3" d="m6.97,24.26c1.59,0,2.88-1.29,2.88-2.88s-1.29-2.88-2.88-2.88-2.88,1.29-2.88,2.88,1.29,2.88,2.88,2.88Z"/><path class="cls-3" d="m21.37,24.26c1.59,0,2.88-1.29,2.88-2.88s-1.29-2.88-2.88-2.88-2.88,1.29-2.88,2.88,1.29,2.88,2.88,2.88Z"/><path class="cls-3" d="m6.97,9.86c1.59,0,2.88-1.29,2.88-2.88s-1.29-2.88-2.88-2.88-2.88,1.29-2.88,2.88,1.29,2.88,2.88,2.88Z"/><path class="cls-3" d="m21.37,9.86c1.59,0,2.88-1.29,2.88-2.88s-1.29-2.88-2.88-2.88-2.88,1.29-2.88,2.88,1.29,2.88,2.88,2.88Z"/><path class="cls-3" d="m.23,31.46c1.59,0,2.88-1.29,2.88-2.88s-1.29-2.88-2.88-2.88-2.88,1.29-2.88,2.88,1.29,2.88,2.88,2.88Z"/><path class="cls-3" d="m.23,17.06c1.59,0,2.88-1.29,2.88-2.88s-1.29-2.88-2.88-2.88-2.88,1.29-2.88,2.88,1.29,2.88,2.88,2.88Z"/><path class="cls-3" d="m28.57,3.11c1.59,0,2.88-1.29,2.88-2.88s-1.29-2.88-2.88-2.88-2.88,1.29-2.88,2.88,1.29,2.88,2.88,2.88Z"/><path class="cls-3" d="m14.17,3.11c1.59,0,2.88-1.29,2.88-2.88s-1.29-2.88-2.88-2.88-2.88,1.29-2.88,2.88,1.29,2.88,2.88,2.88Z"/><path class="cls-3" d="m.23,3.11C1.82,3.11,3.11,1.82,3.11.23S1.82-2.65.23-2.65-2.65-1.36-2.65.23-1.36,3.11.23,3.11Z"/></pattern></defs><path class="cls-5" d="m92.47,151.95c-52.05,0-53.62-15.49-54.14-20.58-1.18-11.58,7.8-24.35,24.63-35.02,18.47-11.71,43.94-19.71,71.72-22.54,7.05-.72,14.13-1.08,21.04-1.08,46.21,0,82.72,16.36,84.93,38.06,2.01,19.79-25.79,30.78-95.95,37.92-21.76,2.21-38.36,3.24-52.23,3.24Z"/><path class="cls-1" d="m92.47,151.95c-52.05,0-53.62-15.49-54.14-20.58-1.18-11.58,7.8-24.35,24.63-35.02,18.47-11.71,43.94-19.71,71.72-22.54,7.05-.72,14.13-1.08,21.04-1.08,46.21,0,82.72,16.36,84.93,38.06,2.01,19.79-25.79,30.78-95.95,37.92-21.76,2.21-38.36,3.24-52.23,3.24Z"/><path class="cls-3" d="m155.73,79.39c22.31,0,42.8,3.89,57.71,10.96,16.87,8,20.14,16.66,20.6,21.11.31,3.08,1.05,10.28-18.87,17.66-18.84,6.99-47.91,10.59-71.13,12.95-21.53,2.19-37.91,3.21-51.56,3.21-16.76,0-29.43-1.61-37.66-4.78-9.22-3.55-9.65-7.78-9.85-9.82-.91-8.98,6.95-19.45,21.57-28.72,17.61-11.16,42.05-18.81,68.83-21.54,6.82-.69,13.68-1.05,20.37-1.05h0m0-13.32c-7.05,0-14.32.36-21.71,1.11-59.53,6.06-105.33,35.09-102.31,64.86,2.07,20.31,26.52,26.57,60.77,26.57,15.94,0,34-1.36,52.91-3.28,59.53-6.06,104.93-15.45,101.9-45.22-2.65-26.07-41.87-44.05-91.56-44.04h0Z"/><path class="cls-6" d="m81.72,84.32c7.91,6.27,24.92,11.39,35.75,41.06"/><path class="cls-6" d="m126.38,72.77c8.93,4.01,20.71,15.08,31.54,44.74"/><path class="cls-6" d="m167.94,71.76c10.55,6.5,20.92,11.86,28.1,37.48"/><path class="cls-4" d="m69.19,251.05c-10.26,0-16.96-3.32-21.07-10.44-15.58-26.98,19.49-77.62,76.58-110.57,31.27-18.05,64.71-28.41,91.75-28.41,20.8,0,35.82,6.17,42.29,17.38,4.14,7.17,7.26,19.04-13.31,39.27-17.69,17.41-47.96,35.81-72.36,49.89-65.82,38-90.09,42.88-103.88,42.88Z"/><path class="cls-3" d="m216.46,108.29c24.72,0,33.49,8.8,36.52,14.05,2.39,4.15,2.76,7.86,1.24,12.43-1.83,5.48-6.36,11.79-13.45,18.77-17.16,16.88-46.97,34.98-71.02,48.87-33.86,19.55-75.88,41.98-100.55,41.98-9.87,0-13.28-3.59-15.3-7.11-5.83-10.09-2.38-26.15,9.44-44.06,13.81-20.91,36.78-41.3,64.7-57.42,30.29-17.49,62.52-27.51,88.43-27.52h0m0-13.32c-27.16,0-61.53,9.93-95.09,29.3-61.35,35.42-96.72,89-79.01,119.67,5.57,9.65,14.84,13.77,26.84,13.77,26.12,0,65.18-19.5,107.21-43.77,61.35-35.42,105.82-67.59,88.11-98.26-8.02-13.9-25.56-20.71-48.06-20.71h0Z"/><path class="cls-6" d="m73.22,168.13c11.58,2.94,32.43.22,58.52,27"/><path class="cls-6" d="m115.83,134c11.58,0,29.68,6.24,55.77,33.01"/><path class="cls-6" d="m160.23,112.73c14.55,1.91,28.35,2.66,48.53,26.84"/></svg>