<?xml version="1.0" encoding="UTF-8"?><svg id="design" xmlns="http://www.w3.org/2000/svg" xmlns:xlink="http://www.w3.org/1999/xlink" viewBox="0 0 283.46 283.46"><defs><style>.cls-1{fill:url(#_10_dpi_40_);}.cls-1,.cls-2,.cls-3,.cls-4,.cls-5{stroke-width:0px;}.cls-2{fill:none;}.cls-3{fill:#321b04;}.cls-4{fill:#eaede6;}.cls-5{fill:#e8b800;}</style><pattern id="_10_dpi_40_" x="0" y="0" width="28.35" height="28.35" patternTransform="translate(-2444.13 -1309.14) scale(.87)" patternUnits="userSpaceOnUse" viewBox="0 0 28.35 28.35"><rect class="cls-2" x="0" width="28.35" height="28.35"/><path class="cls-3" d="m28.57,31.46c1.59,0,2.88-1.29,2.88-2.88s-1.29-2.88-2.88-2.88-2.88,1.29-2.88,2.88,1.29,2.88,2.88,2.88Z"/><path class="cls-3" d="m14.17,31.46c1.59,0,2.88-1.29,2.88-2.88s-1.29-2.88-2.88-2.88-2.88,1.29-2.88,2.88,1.29,2.88,2.88,2.88Z"/><path class="cls-3" d="m28.57,17.06c1.59,0,2.88-1.29,2.88-2.88s-1.29-2.88-2.88-2.88-2.88,1.29-2.88,2.88,1.29,2.88,2.88,2.88Z"/><path class="cls-3" d="m14.17,17.06c1.59,0,2.88-1.29,2.88-2.88s-1.29-2.88-2.88-2.88-2.88,1.29-2.88,2.88,1.29,2.88,2.88,2.88Z"/><path class="cls-3" d="m6.97,24.26c1.59,0,2.88-1.29,2.88-2.88s-1.29-2.88-2.88-2.88-2.88,1.29-2.88,2.88,1.29,2.88,2.88,2.88Z"/><path class="cls-3" d="m21.37,24.26c1.59,0,2.88-1.29,2.88-2.88s-1.29-2.88-2.88-2.88-2.88,1.29-2.88,2.88,1.29,2.88,2.88,2.88Z"/><path class="cls-3" d="m6.97,9.86c1.59,0,2.88-1.29,2.88-2.88s-1.29-2.88-2.88-2.88-2.88,1.29-2.88,2.88,1.29,2.88,2.88,2.88Z"/><path class="cls-3" d="m21.37,9.86c1.59,0,2.88-1.29,2.88-2.88s-1.29-2.88-2.88-2.88-2.88,1.29-2.88,2.88,1.29,2.88,2.88,2.88Z"/><path class="cls-3" d="m.23,31.46c1.59,0,2.88-1.29,2.88-2.88s-1.29-2.88-2.88-2.88-2.88,1.29-2.88,2.88,1.29,2.88,2.88,2.88Z"/><path class="cls-3" d="m.23,17.06c1.59,0,2.88-1.29,2.88-2.88s-1.29-2.88-2.88-2.88-2.88,1.29-2.88,2.88,1.29,2.88,2.88,2.88Z"/><path class="cls-3" d="m28.57,3.11c1.59,0,2.88-1.29,2.88-2.88s-1.29-2.88-2.88-2.88-2.88,1.29-2.88,2.88,1.29,2.88,2.88,2.88Z"/><path class="cls-3" d="m14.17,3.11c1.59,0,2.88-1.29,2.88-2.88s-1.29-2.88-2.88-2.88-2.88,1.29-2.88,2.88,1.29,2.88,2.88,2.88Z"/><path class="cls-3" d="m.23,3.11C1.82,3.11,3.11,1.82,3.11.23S1.82-2.65.23-2.65-2.65-1.36-2.65.23-1.36,3.11.23,3.11Z"/></pattern></defs><path class="cls-4" d="m141.73,195.77c-29.8,0-54.04-24.24-54.04-54.04s24.24-54.04,54.04-54.04,54.04,24.24,54.04,54.04-24.24,54.04-54.04,54.04Zm0-75.54c-11.85,0-21.5,9.64-21.5,21.49s9.64,21.5,21.5,21.5,21.5-9.64,21.5-21.5-9.64-21.49-21.5-21.49Z"/><path class="cls-1" d="m141.73,195.77c-29.8,0-54.04-24.24-54.04-54.04s24.24-54.04,54.04-54.04,54.04,24.24,54.04,54.04-24.24,54.04-54.04,54.04Zm0-75.54c-11.85,0-21.5,9.64-21.5,21.49s9.64,21.5,21.5,21.5,21.5-9.64,21.5-21.5-9.64-21.49-21.5-21.49Z"/><path class="cls-3" d="m141.73,90.3c28.36,0,51.43,23.07,51.43,51.43s-23.07,51.43-51.43,51.43-51.43-23.07-51.43-51.43,23.07-51.43,51.43-51.43m0,75.54c13.29,0,24.11-10.81,24.11-24.11s-10.81-24.11-24.11-24.11-24.11,10.81-24.11,24.11,10.81,24.11,24.11,24.11m0-80.76c-31.29,0-56.65,25.36-56.65,56.65s25.36,56.65,56.65,56.65,56.65-25.36,56.65-56.65-25.36-56.65-56.65-56.65h0Zm0,75.54c-10.43,0-18.88-8.45-18.88-18.88s8.45-18.88,18.88-18.88,18.88,8.45,18.88,18.88-8.45,18.88-18.88,18.88h0Z"/><path class="cls-5" d="m154.75,164.64c-2.23,0-3.92-.58-5.45-1.64,8.74-3.12,15.01-11.48,15.01-21.27,0-12.45-10.13-22.58-22.58-22.58s-22.58,10.13-22.58,22.58c0,3.22.67,6.33,1.95,9.2-3.57,1.78-6.01,4.67-8.24,7.31-3.35,3.97-5.64,6.41-10.2,6.41s-6.85-2.44-10.2-6.41c-.53-.63-1.08-1.28-1.65-1.92-1.36-4.74-2.04-9.64-2.04-14.58,0-29.2,23.76-52.96,52.96-52.96s52.96,23.76,52.96,52.96c0,4.3-.51,8.54-1.53,12.66-2.91-2.8-6.68-5.19-12.37-5.19-8.23,0-12.45,5.01-15.85,9.03-3.35,3.97-5.64,6.41-10.2,6.41Z"/><path class="cls-3" d="m141.73,92.47c27.17,0,49.27,22.1,49.27,49.27,0,2.09-.13,4.16-.39,6.21-2.65-1.44-5.86-2.43-9.81-2.43-6.76,0-11.35,2.88-14.69,6.01,1.22-3.03,1.89-6.33,1.89-9.79,0-14.48-11.78-26.27-26.27-26.27s-26.27,11.78-26.27,26.27c0,2.63.38,5.2,1.13,7.65-2.77,2-4.83,4.44-6.54,6.47-3.25,3.85-4.54,5.1-7.38,5.1s-4.13-1.25-7.38-5.1c-.37-.44-.75-.88-1.13-1.33-1.12-4.16-1.68-8.46-1.68-12.79,0-27.17,22.1-49.27,49.27-49.27m0-7.38c-31.29,0-56.65,25.36-56.65,56.65,0,5.72.86,11.23,2.43,16.44,4.14,4.47,7.24,10.17,15.15,10.17,12.28,0,12.98-13.73,23.95-15.29-2.36-3.15-3.76-7.07-3.76-11.31,0-10.43,8.45-18.88,18.88-18.88s18.88,8.45,18.88,18.88-8.45,18.88-18.88,18.88c0,0,0,0,0,0,3.26,3.86,6.51,7.72,13.02,7.72,13.02,0,13.02-15.44,26.05-15.44,7.13,0,10.36,4.63,13.95,8.81,2.34-6.21,3.63-12.94,3.63-19.98,0-31.29-25.36-56.65-56.65-56.65h0Z"/></svg>