<?xml version="1.0" encoding="UTF-8"?><svg id="design" xmlns="http://www.w3.org/2000/svg" xmlns:xlink="http://www.w3.org/1999/xlink" viewBox="0 0 283.46 283.46"><defs><style>.cls-1{fill:url(#_10_dpi_40_);}.cls-1,.cls-2,.cls-3,.cls-4,.cls-5{stroke-width:0px;}.cls-2{fill:none;}.cls-3{fill:#321b04;}.cls-4{fill:#eaede6;}.cls-5{fill:#e8b800;}</style><pattern id="_10_dpi_40_" x="0" y="0" width="28.35" height="28.35" patternTransform="translate(-758.39 -272.09)" patternUnits="userSpaceOnUse" viewBox="0 0 28.35 28.35"><rect class="cls-2" x="0" width="28.35" height="28.35"/><path class="cls-3" d="m28.57,31.46c1.59,0,2.88-1.29,2.88-2.88s-1.29-2.88-2.88-2.88-2.88,1.29-2.88,2.88,1.29,2.88,2.88,2.88Z"/><path class="cls-3" d="m14.17,31.46c1.59,0,2.88-1.29,2.88-2.88s-1.29-2.88-2.88-2.88-2.88,1.29-2.88,2.88,1.29,2.88,2.88,2.88Z"/><path class="cls-3" d="m28.57,17.06c1.59,0,2.88-1.29,2.88-2.88s-1.29-2.88-2.88-2.88-2.88,1.29-2.88,2.88,1.29,2.88,2.88,2.88Z"/><path class="cls-3" d="m14.17,17.06c1.59,0,2.88-1.29,2.88-2.88s-1.29-2.88-2.88-2.88-2.88,1.29-2.88,2.88,1.29,2.88,2.88,2.88Z"/><path class="cls-3" d="m6.97,24.26c1.59,0,2.88-1.29,2.88-2.88s-1.29-2.88-2.88-2.88-2.88,1.29-2.88,2.88,1.29,2.88,2.88,2.88Z"/><path class="cls-3" d="m21.37,24.26c1.59,0,2.88-1.29,2.88-2.88s-1.29-2.88-2.88-2.88-2.88,1.29-2.88,2.88,1.29,2.88,2.88,2.88Z"/><path class="cls-3" d="m6.97,9.86c1.59,0,2.88-1.29,2.88-2.88s-1.29-2.88-2.88-2.88-2.88,1.29-2.88,2.88,1.29,2.88,2.88,2.88Z"/><path class="cls-3" d="m21.37,9.86c1.59,0,2.88-1.29,2.88-2.88s-1.29-2.88-2.88-2.88-2.88,1.29-2.88,2.88,1.29,2.88,2.88,2.88Z"/><path class="cls-3" d="m.23,31.46c1.59,0,2.88-1.29,2.88-2.88s-1.29-2.88-2.88-2.88-2.88,1.29-2.88,2.88,1.29,2.88,2.88,2.88Z"/><path class="cls-3" d="m.23,17.06c1.59,0,2.88-1.29,2.88-2.88s-1.29-2.88-2.88-2.88-2.88,1.29-2.88,2.88,1.29,2.88,2.88,2.88Z"/><path class="cls-3" d="m28.57,3.11c1.59,0,2.88-1.29,2.88-2.88s-1.29-2.88-2.88-2.88-2.88,1.29-2.88,2.88,1.29,2.88,2.88,2.88Z"/><path class="cls-3" d="m14.17,3.11c1.59,0,2.88-1.29,2.88-2.88s-1.29-2.88-2.88-2.88-2.88,1.29-2.88,2.88,1.29,2.88,2.88,2.88Z"/><path class="cls-3" d="m.23,3.11C1.82,3.11,3.11,1.82,3.11.23S1.82-2.65.23-2.65-2.65-1.36-2.65.23-1.36,3.11.23,3.11Z"/></pattern></defs><path class="cls-4" d="m116.18,178.97v-36.44c0-.99.41-1.96,1.12-2.66,4.67-4.55,5.42-11.93,1.78-17.53-1.92-2.97-2.89-6.1-2.89-9.29,0-13.54,18.13-24.98,39.6-24.98s39.61,11.44,39.61,24.98c0,3.2-.98,6.32-2.91,9.3-3.64,5.59-2.89,12.97,1.8,17.54.7.69,1.11,1.66,1.11,2.65v36.44h-79.21Z"/><path class="cls-1" d="m116.18,178.97v-36.44c0-.99.41-1.96,1.12-2.66,4.67-4.55,5.42-11.93,1.78-17.53-1.92-2.97-2.89-6.1-2.89-9.29,0-13.54,18.13-24.98,39.6-24.98s39.61,11.44,39.61,24.98c0,3.2-.98,6.32-2.91,9.3-3.64,5.59-2.89,12.97,1.8,17.54.7.69,1.11,1.66,1.11,2.65v36.44h-79.21Z"/><path class="cls-3" d="m155.78,92.33c9.91,0,19.49,2.6,26.3,7.13,3.38,2.25,9.06,7.02,9.06,13.59,0,2.36-.75,4.71-2.21,6.97-4.71,7.23-3.76,16.78,2.21,22.73v31.96h-70.7v-31.97c5.97-5.99,6.9-15.51,2.22-22.7-1.47-2.28-2.22-4.63-2.22-7,0-6.57,5.67-11.34,9.06-13.59,6.8-4.53,16.38-7.13,26.29-7.13m0-8.5c-24.22,0-43.85,13.09-43.85,29.23,0,4.13,1.28,8.05,3.58,11.61,2.52,3.87,2.11,8.95-1.2,12.18-1.52,1.5-2.38,3.55-2.38,5.69v40.69h87.71v-40.69c0-2.14-.87-4.19-2.39-5.69-3.31-3.23-3.72-8.31-1.2-12.18,2.31-3.56,3.59-7.48,3.59-11.61,0-16.14-19.64-29.23-43.86-29.23h0Z"/><path class="cls-5" d="m88.08,195.39v-36.44c0-.99.41-1.96,1.11-2.66,4.67-4.55,5.42-11.93,1.78-17.53-1.91-2.96-2.89-6.09-2.89-9.29,0-13.54,18.13-24.98,39.6-24.98s39.61,11.44,39.61,24.98c0,3.2-.98,6.32-2.91,9.29-3.64,5.59-2.89,12.97,1.8,17.54.7.69,1.11,1.66,1.11,2.65v36.44h-79.21Z"/><path class="cls-3" d="m127.68,108.74c9.91,0,19.49,2.6,26.3,7.13,3.38,2.25,9.06,7.02,9.06,13.59,0,2.36-.75,4.71-2.21,6.97-4.71,7.23-3.76,16.78,2.21,22.73v31.96h-70.7v-31.97c5.97-5.99,6.9-15.51,2.22-22.7-1.47-2.28-2.22-4.63-2.22-7,0-6.57,5.67-11.34,9.06-13.59,6.8-4.53,16.38-7.13,26.29-7.13m0-8.5c-24.22,0-43.85,13.09-43.85,29.23,0,4.13,1.28,8.05,3.58,11.61,2.52,3.87,2.11,8.95-1.2,12.18-1.52,1.5-2.38,3.55-2.38,5.69v40.69h87.71v-40.69c0-2.14-.87-4.19-2.39-5.69-3.31-3.23-3.72-8.31-1.2-12.18,2.31-3.56,3.59-7.48,3.59-11.61,0-16.14-19.64-29.23-43.86-29.23h0Z"/></svg>