<?xml version="1.0" encoding="UTF-8"?><svg id="design" xmlns="http://www.w3.org/2000/svg" xmlns:xlink="http://www.w3.org/1999/xlink" viewBox="0 0 283.46 283.46"><defs><style>.cls-1{fill:url(#_10_dpi_40_);}.cls-1,.cls-2,.cls-3,.cls-4,.cls-5,.cls-6,.cls-7{stroke-width:0px;}.cls-8{stroke-width:6.01px;}.cls-8,.cls-9,.cls-2,.cls-10{fill:none;}.cls-8,.cls-9,.cls-10{stroke:#321b04;stroke-linecap:round;stroke-miterlimit:10;}.cls-9{stroke-width:6.01px;}.cls-3{fill:url(#_10_dpi_40_-2);}.cls-10{stroke-width:2.83px;}.cls-4{fill-rule:evenodd;}.cls-4,.cls-7{fill:#e8b800;}.cls-5{fill:#321b04;}.cls-6{fill:#eaede6;}</style><pattern id="_10_dpi_40_" x="0" y="0" width="28.35" height="28.35" patternTransform="translate(-15559.43 849.9) rotate(81.62)" patternUnits="userSpaceOnUse" viewBox="0 0 28.35 28.35"><rect class="cls-2" x="0" width="28.35" height="28.35"/><path class="cls-5" d="m28.57,31.46c1.59,0,2.88-1.29,2.88-2.88s-1.29-2.88-2.88-2.88-2.88,1.29-2.88,2.88,1.29,2.88,2.88,2.88Z"/><path class="cls-5" d="m14.17,31.46c1.59,0,2.88-1.29,2.88-2.88s-1.29-2.88-2.88-2.88-2.88,1.29-2.88,2.88,1.29,2.88,2.88,2.88Z"/><path class="cls-5" d="m28.57,17.06c1.59,0,2.88-1.29,2.88-2.88s-1.29-2.88-2.88-2.88-2.88,1.29-2.88,2.88,1.29,2.88,2.88,2.88Z"/><path class="cls-5" d="m14.17,17.06c1.59,0,2.88-1.29,2.88-2.88s-1.29-2.88-2.88-2.88-2.88,1.29-2.88,2.88,1.29,2.88,2.88,2.88Z"/><path class="cls-5" d="m6.97,24.26c1.59,0,2.88-1.29,2.88-2.88s-1.29-2.88-2.88-2.88-2.88,1.29-2.88,2.88,1.29,2.88,2.88,2.88Z"/><path class="cls-5" d="m21.37,24.26c1.59,0,2.88-1.29,2.88-2.88s-1.29-2.88-2.88-2.88-2.88,1.29-2.88,2.88,1.29,2.88,2.88,2.88Z"/><path class="cls-5" d="m6.97,9.86c1.59,0,2.88-1.29,2.88-2.88s-1.29-2.88-2.88-2.88-2.88,1.29-2.88,2.88,1.29,2.88,2.88,2.88Z"/><path class="cls-5" d="m21.37,9.86c1.59,0,2.88-1.29,2.88-2.88s-1.29-2.88-2.88-2.88-2.88,1.29-2.88,2.88,1.29,2.88,2.88,2.88Z"/><path class="cls-5" d="m.23,31.46c1.59,0,2.88-1.29,2.88-2.88s-1.29-2.88-2.88-2.88-2.88,1.29-2.88,2.88,1.29,2.88,2.88,2.88Z"/><path class="cls-5" d="m.23,17.06c1.59,0,2.88-1.29,2.88-2.88s-1.29-2.88-2.88-2.88-2.88,1.29-2.88,2.88,1.29,2.88,2.88,2.88Z"/><path class="cls-5" d="m28.57,3.11c1.59,0,2.88-1.29,2.88-2.88s-1.29-2.88-2.88-2.88-2.88,1.29-2.88,2.88,1.29,2.88,2.88,2.88Z"/><path class="cls-5" d="m14.17,3.11c1.59,0,2.88-1.29,2.88-2.88s-1.29-2.88-2.88-2.88-2.88,1.29-2.88,2.88,1.29,2.88,2.88,2.88Z"/><path class="cls-5" d="m.23,3.11C1.82,3.11,3.11,1.82,3.11.23S1.82-2.65.23-2.65-2.65-1.36-2.65.23-1.36,3.11.23,3.11Z"/></pattern><pattern id="_10_dpi_40_-2" patternTransform="translate(-1079.61 -261.95)" xlink:href="#_10_dpi_40_"/></defs><path class="cls-7" d="m203.98,168.76c-1.61,0-3.27-.01-4.95-.03-1.78-.01-3.59-.03-5.43-.03s-3.65.01-5.43.03c-1.68.01-3.34.03-4.95.03h0c-19.31,0-26.16-2.45-26.16-16.2s6.94-17.93,20.76-25.62c3.92-2.18,8.36-4.65,13.07-7.66.72-.46,1.38-1.1,2.22-1.91.15-.14.33-.32.52-.5.27.25.52.5.71.69.89.87,1.59,1.56,2.35,2.05,4.61,2.97,9,5.43,12.88,7.59,13.26,7.39,20.56,11.47,20.56,25.36s-6.85,16.2-26.16,16.2Z"/><path class="cls-5" d="m193.58,122.61c.26.2.53.4.81.58,4.72,3.05,9.18,5.54,13.11,7.73,13.96,7.79,18.38,10.77,18.38,21.65,0,7.72-2.59,9.04-3.98,9.74-4.01,2.03-11.36,2.2-17.93,2.2-1.6,0-3.24-.01-4.92-.03-1.79-.01-3.61-.03-5.46-.03s-3.67.01-5.46.03c-1.67.01-3.32.03-4.92.03-6.57,0-13.91-.17-17.93-2.2-1.39-.71-3.98-2.02-3.98-9.74,0-11.08,4.16-13.88,18.58-21.9,3.97-2.21,8.48-4.71,13.3-7.79.13-.09.27-.17.39-.27m.02-10.83c-1.25,0-3.96,3.28-4.99,3.93-20.8,13.28-35.8,15.58-35.8,36.86,0,18.94,12.91,20.45,30.41,20.45,3.31,0,6.79-.05,10.38-.05s7.07.05,10.38.05c17.5,0,30.41-1.51,30.41-20.45,0-21.12-15.34-23.58-35.38-36.52-1.15-.75-4-4.27-5.41-4.27h0Z"/><line class="cls-9" x1="193.6" y1="120" x2="193.6" y2="142.39"/><path class="cls-9" d="m206.86,142.39s-.75-8.22-3.1-12.47c-2.35-4.25-8.77-8.77-8.77-8.77"/><path class="cls-4" d="m54.19,198.64c-.32,0-.56-.14-.73-.41-.12-.19-.22-.5-.03-.86,1.92-3.69,5.69-6.14,9.83-6.41,2.71-.17,4.88-2.35,5.05-5.05.4-6.26,5.64-11.17,11.93-11.17.2,0,.4,0,.61.02.1,0,.21.01.31.01,1.79,0,3.41-1.13,4.01-2.85,1.67-4.78,6.2-7.99,11.27-7.99,2.18,0,4.32.59,6.17,1.71,1.66,1,3.55,1.53,5.47,1.53,1.6,0,3.2-.38,4.61-1.09,1.67-.83,3.46-1.26,5.35-1.26,5.07,0,9.6,3.21,11.27,7.99.6,1.71,2.22,2.85,4.01,2.85.1,0,.21,0,.31-.01.2-.01.4-.02.61-.02,6.29,0,11.52,4.91,11.92,11.17.17,2.71,2.34,4.88,5.04,5.05,3.76.24,7.23,2.27,9.29,5.45.18.28.19.58.03.88-.16.3-.42.45-.76.45H54.19Z"/><path class="cls-5" d="m96.44,168.19c1.41,0,2.78.38,3.98,1.1,2.32,1.4,4.97,2.14,7.67,2.14,2.26,0,4.51-.53,6.52-1.54,1.07-.54,2.22-.81,3.44-.81,3.27,0,6.19,2.06,7.26,5.14,1.2,3.43,4.43,5.7,8.02,5.7.21,0,.42,0,.62-.02.04,0,.12,0,.3,0,4.05,0,7.42,3.16,7.68,7.19.19,3.02,1.78,5.67,4.12,7.31h-79.2c3.19-1.43,5.47-4.54,5.71-8.21.26-4.03,3.63-7.19,7.69-7.19.17,0,.26,0,.3,0,.21.02.42.02.62.02,3.59,0,6.82-2.27,8.02-5.7,1.08-3.07,3.99-5.14,7.25-5.14m0-8.5c-7.07,0-13.07,4.52-15.28,10.83-.31-.02-.61-.03-.92-.03-8.6,0-15.64,6.7-16.17,15.16-.04.58-.5,1.04-1.08,1.08-5.8.37-10.77,3.79-13.33,8.68-1.78,3.41.68,7.49,4.52,7.49h105.57c4.05,0,6.5-4.49,4.3-7.89-2.71-4.19-7.3-7.06-12.59-7.39-.57-.04-1.03-.5-1.07-1.08-.54-8.46-7.57-15.15-16.17-15.15-.31,0-.61,0-.92.03-2.21-6.31-8.21-10.83-15.29-10.83-2.61,0-5.07.62-7.25,1.71-.85.43-1.78.63-2.7.63-1.14,0-2.28-.31-3.27-.91-2.44-1.47-5.31-2.33-8.37-2.33h0Z"/><path class="cls-10" d="m130.44,188.07c-5.82-6.16-14.07-10.01-23.21-10.01s-17.39,3.85-23.21,10.01"/><path class="cls-8" d="m130.44,188.07c-5.82-6.16-14.07-10.01-23.21-10.01s-17.39,3.85-23.21,10.01"/><path class="cls-9" d="m180.33,142.39s.75-8.22,3.1-12.47,8.77-8.77,8.77-8.77"/><path class="cls-6" d="m92.8,143.26c-5.76,0-10.73-4.3-11.57-10.01-.55-3.71.75-7.49,3.46-10.12l1.61-1.56-1.03-1.99c-.61-1.17-1.01-2.41-1.19-3.67-.94-6.39,3.49-12.35,9.88-13.3.57-.08,1.15-.13,1.72-.13,2.8,0,5.52,1.02,7.66,2.88l1.53,1.33,1.81-.92c1.16-.59,2.38-.98,3.62-1.17.57-.08,1.15-.13,1.72-.13,5.76,0,10.73,4.3,11.57,10.01.58,3.9-.84,7.81-3.8,10.45l-1.02.92.02,1.37c.09,5.85-4.2,10.91-9.99,11.76-.57.08-1.14.13-1.71.13-.96,0-1.93-.12-2.87-.36l-1.71-.43-1.21,1.28c-1.83,1.92-4.17,3.14-6.77,3.52-.57.08-1.15.13-1.73.13Z"/><path class="cls-1" d="m92.8,143.26c-5.76,0-10.73-4.3-11.57-10.01-.55-3.71.75-7.49,3.46-10.12l1.61-1.56-1.03-1.99c-.61-1.17-1.01-2.41-1.19-3.67-.94-6.39,3.49-12.35,9.88-13.3.57-.08,1.15-.13,1.72-.13,2.8,0,5.52,1.02,7.66,2.88l1.53,1.33,1.81-.92c1.16-.59,2.38-.98,3.62-1.17.57-.08,1.15-.13,1.72-.13,5.76,0,10.73,4.3,11.57,10.01.58,3.9-.84,7.81-3.8,10.45l-1.02.92.02,1.37c.09,5.85-4.2,10.91-9.99,11.76-.57.08-1.14.13-1.71.13-.96,0-1.93-.12-2.87-.36l-1.71-.43-1.21,1.28c-1.83,1.92-4.17,3.14-6.77,3.52-.57.08-1.15.13-1.73.13Z"/><path class="cls-5" d="m95.67,105.51c2.08,0,4.1.76,5.69,2.14l3.06,2.66,3.61-1.85c.86-.44,1.77-.73,2.69-.87.43-.06.86-.09,1.29-.09,4.28,0,7.97,3.2,8.6,7.44.43,2.9-.63,5.8-2.83,7.77l-2.05,1.83.04,2.75c.07,4.35-3.12,8.11-7.42,8.74-.42.06-.85.09-1.27.09-.72,0-1.43-.09-2.13-.27l-3.41-.87-2.43,2.55c-1.36,1.43-3.1,2.33-5.03,2.62-.43.06-.86.09-1.29.09-4.28,0-7.97-3.2-8.6-7.44-.41-2.8.53-5.54,2.57-7.52l3.21-3.11-2.05-3.97c-.45-.88-.75-1.79-.89-2.73-.7-4.75,2.6-9.18,7.35-9.88.42-.06.85-.09,1.28-.09h0m0-6.01c-.71,0-1.43.05-2.15.16-8.04,1.18-13.6,8.66-12.42,16.71.24,1.66.77,3.2,1.5,4.61-3.29,3.18-5.06,7.84-4.34,12.72,1.08,7.32,7.36,12.58,14.55,12.58.71,0,1.44-.05,2.16-.16,3.39-.5,6.32-2.12,8.51-4.43,1.16.29,2.37.45,3.61.45.71,0,1.43-.05,2.15-.16,7.4-1.09,12.68-7.51,12.56-14.79,3.57-3.19,5.52-8.04,4.77-13.13-1.08-7.32-7.36-12.58-14.55-12.58-.71,0-1.44.05-2.16.16-1.63.24-3.16.75-4.55,1.46-2.62-2.27-6.01-3.61-9.63-3.61h0Z"/><path class="cls-6" d="m164.98,108.76c-1.73,0-3.39-.65-4.66-1.83-.67-.62-1.19-1.35-1.57-2.18l-.73-1.6-1.75-.15c-1.54-.13-2.95-.76-4.08-1.81-2.76-2.58-2.91-6.92-.34-9.68,1.3-1.4,3.08-2.17,5-2.17.29,0,.59.02.88.06l2.22.28.91-2.04c.31-.71.73-1.34,1.24-1.88,1.31-1.41,3.09-2.18,5.01-2.18,1.74,0,3.4.65,4.67,1.84,1.46,1.36,2.25,3.29,2.17,5.29l-.08,2.03,1.85.83c.69.31,1.32.73,1.86,1.23,2.76,2.58,2.91,6.92.34,9.68-1.31,1.4-3.09,2.17-5.01,2.17-.38,0-.77-.03-1.15-.1l-1.36-.23-1.06.88c-1.22,1.01-2.77,1.56-4.36,1.56h0Z"/><path class="cls-3" d="m164.98,108.76c-1.73,0-3.39-.65-4.66-1.83-.67-.62-1.19-1.35-1.57-2.18l-.73-1.6-1.75-.15c-1.54-.13-2.95-.76-4.08-1.81-2.76-2.58-2.91-6.92-.34-9.68,1.3-1.4,3.08-2.17,5-2.17.29,0,.59.02.88.06l2.22.28.91-2.04c.31-.71.73-1.34,1.24-1.88,1.31-1.41,3.09-2.18,5.01-2.18,1.74,0,3.4.65,4.67,1.84,1.46,1.36,2.25,3.29,2.17,5.29l-.08,2.03,1.85.83c.69.31,1.32.73,1.86,1.23,2.76,2.58,2.91,6.92.34,9.68-1.31,1.4-3.09,2.17-5.01,2.17-.38,0-.77-.03-1.15-.1l-1.36-.23-1.06.88c-1.22,1.01-2.77,1.56-4.36,1.56h0Z"/><path class="cls-5" d="m167.12,86.58h0c.97,0,1.91.37,2.62,1.03,1.12,1.04,1.24,2.31,1.21,2.97l-.16,4.05,3.7,1.67c.39.18.74.41,1.04.69.75.7,1.18,1.65,1.22,2.68.04,1.03-.33,2-1.03,2.76-.73.79-1.73,1.22-2.81,1.22-.22,0-.44-.02-.65-.05l-2.71-.46-2.12,1.75c-.68.56-1.55.88-2.45.88-.97,0-1.9-.36-2.61-1.03-.37-.35-.67-.76-.88-1.22l-1.45-3.21-3.51-.3c-.6-.05-1.49-.27-2.29-1.01-1.55-1.45-1.64-3.88-.19-5.43.73-.78,1.73-1.21,2.81-1.21.17,0,.34.01.5.03l4.43.57,1.82-4.08c.18-.4.41-.76.69-1.06.73-.79,1.73-1.22,2.81-1.22m0-6.01c-2.64,0-5.27,1.05-7.21,3.13-.77.82-1.35,1.74-1.79,2.71-.42-.05-.84-.08-1.26-.08-2.64,0-5.26,1.05-7.2,3.13-3.71,3.98-3.49,10.22.49,13.93,1.68,1.56,3.75,2.42,5.87,2.6.52,1.15,1.27,2.22,2.25,3.13,1.9,1.77,4.3,2.64,6.71,2.64,2.24,0,4.47-.76,6.28-2.25.55.09,1.1.14,1.65.14,2.64,0,5.27-1.05,7.21-3.13,3.71-3.98,3.49-10.22-.49-13.93-.81-.75-1.71-1.34-2.67-1.77.11-2.77-.93-5.57-3.12-7.61-1.9-1.77-4.31-2.65-6.72-2.65h0Z"/></svg>