<?xml version="1.0" encoding="UTF-8"?><svg id="_レイヤー_1" xmlns="http://www.w3.org/2000/svg" xmlns:xlink="http://www.w3.org/1999/xlink" viewBox="0 0 300 300"><defs><style>.cls-1{fill:url(#_10_dpi_40_);}.cls-1,.cls-2,.cls-3,.cls-4,.cls-5{stroke-width:0px;}.cls-2,.cls-6{fill:none;}.cls-6{stroke:#321b04;stroke-miterlimit:10;stroke-width:13.83px;}.cls-3{fill:#321b04;}.cls-4{fill:#e98340;}.cls-5{fill:#e9ede5;}</style><pattern id="_10_dpi_40_" x="0" y="0" width="28.35" height="28.35" patternTransform="translate(4410.84 5022.68) scale(1.63)" patternUnits="userSpaceOnUse" viewBox="0 0 28.35 28.35"><rect class="cls-2" x="0" width="28.35" height="28.35"/><path class="cls-3" d="m28.57,31.46c1.59,0,2.88-1.29,2.88-2.88s-1.29-2.88-2.88-2.88-2.88,1.29-2.88,2.88,1.29,2.88,2.88,2.88Z"/><path class="cls-3" d="m14.17,31.46c1.59,0,2.88-1.29,2.88-2.88s-1.29-2.88-2.88-2.88-2.88,1.29-2.88,2.88,1.29,2.88,2.88,2.88Z"/><path class="cls-3" d="m28.57,17.06c1.59,0,2.88-1.29,2.88-2.88s-1.29-2.88-2.88-2.88-2.88,1.29-2.88,2.88,1.29,2.88,2.88,2.88Z"/><path class="cls-3" d="m14.17,17.06c1.59,0,2.88-1.29,2.88-2.88s-1.29-2.88-2.88-2.88-2.88,1.29-2.88,2.88,1.29,2.88,2.88,2.88Z"/><path class="cls-3" d="m6.97,24.26c1.59,0,2.88-1.29,2.88-2.88s-1.29-2.88-2.88-2.88-2.88,1.29-2.88,2.88,1.29,2.88,2.88,2.88Z"/><path class="cls-3" d="m21.37,24.26c1.59,0,2.88-1.29,2.88-2.88s-1.29-2.88-2.88-2.88-2.88,1.29-2.88,2.88,1.29,2.88,2.88,2.88Z"/><path class="cls-3" d="m6.97,9.86c1.59,0,2.88-1.29,2.88-2.88s-1.29-2.88-2.88-2.88-2.88,1.29-2.88,2.88,1.29,2.88,2.88,2.88Z"/><path class="cls-3" d="m21.37,9.86c1.59,0,2.88-1.29,2.88-2.88s-1.29-2.88-2.88-2.88-2.88,1.29-2.88,2.88,1.29,2.88,2.88,2.88Z"/><path class="cls-3" d="m.23,31.46c1.59,0,2.88-1.29,2.88-2.88s-1.29-2.88-2.88-2.88-2.88,1.29-2.88,2.88,1.29,2.88,2.88,2.88Z"/><path class="cls-3" d="m.23,17.06c1.59,0,2.88-1.29,2.88-2.88s-1.29-2.88-2.88-2.88-2.88,1.29-2.88,2.88,1.29,2.88,2.88,2.88Z"/><path class="cls-3" d="m28.57,3.11c1.59,0,2.88-1.29,2.88-2.88s-1.29-2.88-2.88-2.88-2.88,1.29-2.88,2.88,1.29,2.88,2.88,2.88Z"/><path class="cls-3" d="m14.17,3.11c1.59,0,2.88-1.29,2.88-2.88s-1.29-2.88-2.88-2.88-2.88,1.29-2.88,2.88,1.29,2.88,2.88,2.88Z"/><path class="cls-3" d="m.23,3.11C1.82,3.11,3.11,1.82,3.11.23S1.82-2.65.23-2.65-2.65-1.36-2.65.23-1.36,3.11.23,3.11Z"/></pattern></defs><circle class="cls-4" cx="156.74" cy="161.89" r="72.88" transform="translate(-50.02 72.3) rotate(-22.5)"/><path class="cls-3" d="m156.74,95.93c36.37,0,65.96,29.59,65.96,65.96s-29.59,65.96-65.96,65.96-65.96-29.59-65.96-65.96,29.59-65.96,65.96-65.96m0-13.83c-44.07,0-79.79,35.72-79.79,79.79s35.72,79.79,79.79,79.79,79.79-35.72,79.79-79.79-35.72-79.79-79.79-79.79h0Z"/><path class="cls-5" d="m156.74,213.42c-28.41,0-51.53-23.12-51.53-51.53s23.12-51.53,51.53-51.53,51.53,23.12,51.53,51.53-23.12,51.53-51.53,51.53Z"/><path class="cls-1" d="m156.74,213.42c-28.41,0-51.53-23.12-51.53-51.53s23.12-51.53,51.53-51.53,51.53,23.12,51.53,51.53-23.12,51.53-51.53,51.53Z"/><path class="cls-3" d="m156.74,115.25c25.72,0,46.64,20.92,46.64,46.64s-20.92,46.64-46.64,46.64-46.64-20.92-46.64-46.64,20.92-46.64,46.64-46.64m0-9.78c-31.16,0-56.42,25.26-56.42,56.42s25.26,56.42,56.42,56.42,56.42-25.26,56.42-56.42-25.26-56.42-56.42-56.42h0Z"/><path class="cls-4" d="m36.23,124.49c26.68,0,26.68-31.63,26.68-31.63v-23.55s-54.39,0-54.39,0v23.55s0,31.63,27.71,31.63Z"/><path class="cls-3" d="m49.08,83.14v9.72c0,.05-.13,5.42-2.25,10.44-2.57,6.11-6.1,7.36-10.6,7.36-5.71,0-9-2.04-11.34-7.03-2.33-4.96-2.52-10.45-2.53-10.86v-9.63h26.72m13.83-13.83H8.52v23.55s0,31.63,27.71,31.63h0c26.68,0,26.68-31.63,26.68-31.63v-23.55h0Z"/><line class="cls-6" x1="35.72" y1="113.46" x2="35.72" y2="257.71"/><path class="cls-3" d="m42.63,69.3h-13.83v-20.09c0-3.82,3.1-6.92,6.92-6.92h0c3.82,0,6.92,3.1,6.92,6.92v20.09Z"/><path class="cls-3" d="m22.35,69.3h-13.83v-20.09c0-3.82,3.1-6.92,6.92-6.92h0c3.82,0,6.92,3.1,6.92,6.92v20.09Z"/><path class="cls-3" d="m62.91,69.3h-13.83v-20.09c0-3.82,3.1-6.92,6.92-6.92h0c3.82,0,6.92,3.1,6.92,6.92v20.09Z"/><polygon class="cls-4" points="257.84 154.97 257.84 71.39 284.56 53.6 284.56 154.97 257.84 154.97"/><path class="cls-3" d="m277.65,66.51v81.54h-12.89v-72.96l12.89-8.58m7.33-20.22c-1.21,0-2.44.34-3.58,1.1l-27.58,18.37c-1.81,1.2-2.89,3.23-2.89,5.4v84.24c0,3.58,2.9,6.49,6.49,6.49h34.07V52.8c0-3.82-3.13-6.5-6.51-6.5h0Z"/><rect class="cls-3" x="277.98" y="161.89" width="13.5" height="94.2"/></svg>