<?xml version="1.0" encoding="UTF-8"?><svg id="design" xmlns="http://www.w3.org/2000/svg" xmlns:xlink="http://www.w3.org/1999/xlink" viewBox="0 0 283.46 283.46"><defs><style>.cls-1{fill:url(#_10_dpi_40_);}.cls-1,.cls-2,.cls-3,.cls-4,.cls-5{stroke-width:0px;}.cls-2{fill:none;}.cls-3{fill:#321b04;}.cls-4{fill:#eaede6;}.cls-5{fill:#e8b800;}</style><pattern id="_10_dpi_40_" x="0" y="0" width="28.35" height="28.35" patternTransform="translate(-1399.79 -265.18)" patternUnits="userSpaceOnUse" viewBox="0 0 28.35 28.35"><rect class="cls-2" x="0" width="28.35" height="28.35"/><path class="cls-3" d="m28.57,31.46c1.59,0,2.88-1.29,2.88-2.88s-1.29-2.88-2.88-2.88-2.88,1.29-2.88,2.88,1.29,2.88,2.88,2.88Z"/><path class="cls-3" d="m14.17,31.46c1.59,0,2.88-1.29,2.88-2.88s-1.29-2.88-2.88-2.88-2.88,1.29-2.88,2.88,1.29,2.88,2.88,2.88Z"/><path class="cls-3" d="m28.57,17.06c1.59,0,2.88-1.29,2.88-2.88s-1.29-2.88-2.88-2.88-2.88,1.29-2.88,2.88,1.29,2.88,2.88,2.88Z"/><path class="cls-3" d="m14.17,17.06c1.59,0,2.88-1.29,2.88-2.88s-1.29-2.88-2.88-2.88-2.88,1.29-2.88,2.88,1.29,2.88,2.88,2.88Z"/><path class="cls-3" d="m6.97,24.26c1.59,0,2.88-1.29,2.88-2.88s-1.29-2.88-2.88-2.88-2.88,1.29-2.88,2.88,1.29,2.88,2.88,2.88Z"/><path class="cls-3" d="m21.37,24.26c1.59,0,2.88-1.29,2.88-2.88s-1.29-2.88-2.88-2.88-2.88,1.29-2.88,2.88,1.29,2.88,2.88,2.88Z"/><path class="cls-3" d="m6.97,9.86c1.59,0,2.88-1.29,2.88-2.88s-1.29-2.88-2.88-2.88-2.88,1.29-2.88,2.88,1.29,2.88,2.88,2.88Z"/><path class="cls-3" d="m21.37,9.86c1.59,0,2.88-1.29,2.88-2.88s-1.29-2.88-2.88-2.88-2.88,1.29-2.88,2.88,1.29,2.88,2.88,2.88Z"/><path class="cls-3" d="m.23,31.46c1.59,0,2.88-1.29,2.88-2.88s-1.29-2.88-2.88-2.88-2.88,1.29-2.88,2.88,1.29,2.88,2.88,2.88Z"/><path class="cls-3" d="m.23,17.06c1.59,0,2.88-1.29,2.88-2.88s-1.29-2.88-2.88-2.88-2.88,1.29-2.88,2.88,1.29,2.88,2.88,2.88Z"/><path class="cls-3" d="m28.57,3.11c1.59,0,2.88-1.29,2.88-2.88s-1.29-2.88-2.88-2.88-2.88,1.29-2.88,2.88,1.29,2.88,2.88,2.88Z"/><path class="cls-3" d="m14.17,3.11c1.59,0,2.88-1.29,2.88-2.88s-1.29-2.88-2.88-2.88-2.88,1.29-2.88,2.88,1.29,2.88,2.88,2.88Z"/><path class="cls-3" d="m.23,3.11C1.82,3.11,3.11,1.82,3.11.23S1.82-2.65.23-2.65-2.65-1.36-2.65.23-1.36,3.11.23,3.11Z"/></pattern></defs><path class="cls-4" d="m162.49,135.49c-2.41,0-4.99-.04-7.65-.13-15.99-.54-35.94-3.85-39.52-11.43-.38-.8-1.52-3.23,1.89-7.67,3.44-4.48,13.61-14.89,33.67-14.89,2.91,0,5.96.22,9.05.66,30.8,4.34,34.13,16.54,35.23,20.55.9,3.3-.02,5.02-.78,6.02-2.4,3.14-9.88,6.89-31.88,6.89h0Z"/><path class="cls-1" d="m162.49,135.49c-2.41,0-4.99-.04-7.65-.13-15.99-.54-35.94-3.85-39.52-11.43-.38-.8-1.52-3.23,1.89-7.67,3.44-4.48,13.61-14.89,33.67-14.89,2.91,0,5.96.22,9.05.66,30.8,4.34,34.13,16.54,35.23,20.55.9,3.3-.02,5.02-.78,6.02-2.4,3.14-9.88,6.89-31.88,6.89h0Z"/><path class="cls-3" d="m150.88,104.38c2.77,0,5.67.21,8.63.63,28.84,4.07,31.78,14.83,32.75,18.37.61,2.24.01,3.03-.27,3.4-4.04,5.29-23.59,5.71-29.49,5.71-2.38,0-4.92-.04-7.55-.13-25.97-.87-35.49-6.73-36.9-9.71-.49-1.04.03-2.57,1.56-4.55,3.94-5.12,13.24-13.71,31.28-13.71m0-6.01c-18.05,0-29.82,7.95-36.05,16.06-10.67,13.89,8.24,22.87,39.91,23.93,2.71.09,5.3.14,7.75.14,27.34,0,38.59-5.64,35.57-16.71-3.14-11.5-14.23-19.43-37.71-22.74-3.33-.47-6.48-.69-9.47-.69h0Z"/><path class="cls-5" d="m203.66,123.48c-22.06-3.72-47.25-3.72-65.8-3.72-9.5,0-17.71,0-22.5-.52-.55-.08-2.61-.51-3.66-.8-1.3-1.65-1.53-5.86-1.79-10.67-.14-2.54-.3-5.41-.63-8.51-.04-.36.06-.68.29-.96.28-.35.73-.57,1.22-.62,14.62-1.33,26.96-1.97,37.71-1.97,18.51,0,33.38,1.91,45.43,5.83,2.74.89,3.42,1.85,3.7,2.48,3.1,7.24,5.13,13.77,6.04,19.45Z"/><path class="cls-3" d="m148.49,99.97c18.06,0,32.49,1.84,44.12,5.62.68.22,1.08.41,1.28.52,1.86,4.39,3.3,8.48,4.31,12.24-20.8-2.84-43.33-2.84-60.34-2.84-9.29,0-17.32,0-21.92-.48-.26-.04-.68-.13-1.14-.22-.34-1.77-.52-4.87-.65-7.27-.1-1.79-.21-3.75-.38-5.85,13.36-1.16,24.74-1.72,34.72-1.72m0-8.5c-12,0-24.77.78-38.09,1.99-3.24.29-5.7,3.04-5.35,6.27,1.18,10.84.1,18.91,4.3,22.36.53.44,4.87,1.31,5.56,1.39,14.88,1.59,56.74-1.53,90.3,4.6.13.02.26.04.39.04,1.57,0,2.75-1.74,2.54-3.38-.85-6.86-3.19-14.38-6.61-22.37-1.11-2.61-3.6-3.98-6.29-4.86-13.48-4.38-29.29-6.03-46.75-6.03h0Z"/><path class="cls-4" d="m115.9,157.37c-15.47,0-26.31-2.87-29.01-7.66-.42-.74-1.68-2.99,1.14-7.65,3.44-5.68,14.11-18.88,38.79-18.88.69,0,1.39.01,2.1.03,31.09.93,35.75,12.69,37.27,16.55,1.28,3.23.51,5.06-.17,6.16-2.4,3.84-11.03,8.86-38.49,10.97-4.06.31-7.97.47-11.62.47h0Z"/><path class="cls-1" d="m115.9,157.37c-15.47,0-26.31-2.87-29.01-7.66-.42-.74-1.68-2.99,1.14-7.65,3.44-5.68,14.11-18.88,38.79-18.88.69,0,1.39.01,2.1.03,31.09.93,35.75,12.69,37.27,16.55,1.28,3.23.51,5.06-.17,6.16-2.4,3.84-11.03,8.86-38.49,10.97-4.06.31-7.97.47-11.62.47h0Z"/><path class="cls-3" d="m126.82,126.19c.66,0,1.33,0,2.01.03,29.11.87,33.22,11.24,34.57,14.65.87,2.19.33,3.05.07,3.46-1.34,2.14-7.55,7.37-36.17,9.57-3.99.31-7.82.46-11.4.46-18.11,0-25.11-3.85-26.39-6.13-.68-1.2.22-3.17,1.09-4.61,2-3.3,5.77-8.02,12.36-11.75,6.66-3.77,14.69-5.68,23.86-5.68m0-6.01c-22.35,0-35.37,10.45-41.36,20.33-7.88,13,5.99,19.87,30.44,19.87,3.72,0,7.68-.16,11.86-.48,32.88-2.53,45.83-9.62,41.23-21.24-4.39-11.08-16.28-17.74-39.98-18.45-.74-.02-1.47-.03-2.19-.03h0Z"/><path class="cls-5" d="m86.54,145.23c-.61-.02-2.69-.22-3.75-.39-1.47-1.5-2.16-5.65-2.96-10.41-.42-2.51-.89-5.35-1.57-8.39-.08-.35-.02-.68.18-.98.24-.38.66-.65,1.14-.75,25.04-5.1,44.03-7.47,59.78-7.47,8.57,0,16.4.72,23.28,2.15,2.83.58,3.61,1.46,3.95,2.06,3.88,6.85,6.61,13.12,8.15,18.67-3.78-.21-7.8-.32-11.98-.32-18.91,0-38.27,2.14-53.84,3.87-9.42,1.04-17.56,1.94-22.39,1.96Z"/><path class="cls-3" d="m139.37,121.09c8.28,0,15.82.69,22.42,2.06.7.15,1.11.29,1.33.38,2.33,4.16,4.21,8.06,5.63,11.69-1.95-.05-3.95-.08-5.98-.08-19.14,0-38.64,2.16-54.3,3.89-9.25,1.02-17.24,1.91-21.84,1.94-.27-.01-.69-.05-1.16-.1-.54-1.73-1.05-4.78-1.44-7.15-.3-1.77-.62-3.7-1.02-5.77,23.49-4.68,41.45-6.87,56.36-6.87m0-8.5c-18.24,0-38.73,3.1-60.63,7.55-3.19.65-5.33,3.64-4.63,6.82,2.36,10.64,2.18,18.79,6.74,21.75.57.37,4.96.77,5.67.77h0c12.95-.05,45.63-5.83,76.24-5.83,4.75,0,9.44.14,14.01.46.05,0,.11,0,.16,0,1.7,0,2.8-1.96,2.4-3.65-1.6-6.73-4.75-13.94-9.03-21.51-1.39-2.47-4.02-3.56-6.79-4.13-7.49-1.55-15.57-2.23-24.14-2.23h0Z"/><polygon class="cls-3" points="54.87 179.62 228.59 177.45 228.59 185.95 54.87 183.78 54.87 179.62 54.87 179.62"/><polygon class="cls-3" points="54.87 189.92 228.59 187.75 228.59 196.25 54.87 194.08 54.87 189.92 54.87 189.92"/></svg>