<?xml version="1.0" encoding="UTF-8"?><svg id="_レイヤー_1" xmlns="http://www.w3.org/2000/svg" viewBox="0 0 310.47 407.33"><defs><style>.cls-1{fill:#efe700;stroke-linecap:round;}.cls-1,.cls-2,.cls-3{stroke:#321b04;}.cls-1,.cls-3{stroke-miterlimit:10;stroke-width:14.24px;}.cls-2{fill:#321b04;stroke-width:.73px;}.cls-3{fill:#e7b800;}</style></defs><path class="cls-3" d="m233.42,259.44h0c0-17.85-14.47-32.33-32.33-32.33h-16.16v-28.36c0-7.63,6.18-13.81,13.81-13.81h67.01c17.85,0,32.33-14.47,32.33-32.33h0c0-17.85-14.47-32.33-32.33-32.33h-67.01c-7.63,0-13.81-6.18-13.81-13.81V39.45c0-17.85-14.47-32.33-32.33-32.33h0c-17.85,0-32.33,14.47-32.33,32.33v67.01c0,7.63-6.18,13.81-13.81,13.81H39.45c-17.85,0-32.33,14.47-32.33,32.33h0c0,17.85,14.47,32.33,32.33,32.33h67.01c7.63,0,13.81,6.18,13.81,13.81v60.69c0,17.85,14.47,32.33,32.33,32.33h48.49c17.85,0,32.33-14.47,32.33-32.33Z"/><line class="cls-1" x1="184.93" y1="227.11" x2="184.93" y2="256.72"/><path class="cls-2" d="m52.82,387.8c-.78,15.16-13.52,19.08-20.25,19.08h-6.53c-2.61,0-4.57-2.09-4.57-4.57v-44.88c0-1.96,1.5-3.59,3.46-3.59s3.4,1.63,3.4,3.59v41.94c0,.33.33.52.52.52h3.72c.52,0,12.61-.2,13.26-12.41.33-5.36-.85-10.58-10.13-12.22-1.96-.33-3.46-1.96-3.46-3.92s1.63-3.27,3.59-3.14c14.7,2.48,17.51,11.96,16.99,19.6Z"/><path class="cls-2" d="m90.06,357.29v.46c0,1.96-1.63,3.59-3.4,3.59-1.96,0-3.59-1.63-3.59-3.59v-.46c0-1.96,1.63-3.46,3.59-3.46,1.76,0,3.4,1.5,3.4,3.46Zm0,13.85v32.14c0,1.96-1.63,3.59-3.4,3.59-1.96,0-3.59-1.63-3.59-3.59v-32.14c0-1.96,1.63-3.59,3.59-3.59,1.76,0,3.4,1.63,3.4,3.59Z"/><path class="cls-2" d="m143.63,376.95c0,1.76-1.63,3.4-3.4,3.4h-5.42v23.13c0,1.76-1.63,3.4-3.4,3.4-1.96,0-3.59-1.63-3.59-3.4v-23.13h-5.23c-1.96,0-3.59-1.63-3.59-3.4,0-1.96,1.63-3.59,3.59-3.59h5.23v-15.94c0-1.96,1.63-3.59,3.59-3.59,1.76,0,3.4,1.63,3.4,3.59v15.94h5.42c1.76,0,3.4,1.63,3.4,3.59Z"/><path class="cls-2" d="m195.37,376.95c0,1.76-1.63,3.4-3.4,3.4h-5.42v23.13c0,1.76-1.63,3.4-3.4,3.4-1.96,0-3.59-1.63-3.59-3.4v-23.13h-5.23c-1.96,0-3.59-1.63-3.59-3.4,0-1.96,1.63-3.59,3.59-3.59h5.23v-15.94c0-1.96,1.63-3.59,3.59-3.59,1.76,0,3.4,1.63,3.4,3.59v15.94h5.42c1.76,0,3.4,1.63,3.4,3.59Z"/><path class="cls-2" d="m244.7,368.07c4.7,1.31,8.82,4.57,11.24,9.15,1.83,3.27,2.29,6.53,2.29,8.62,0,2.61-2.09,4.77-4.7,4.77h-16.01c-1.83,0-3.46-1.63-3.46-3.46,0-1.96,1.5-3.59,3.46-3.59h12.87c.33,0,.52-.13.33-.46-.13-.98-.46-1.83-.78-2.61-1.63-2.94-4.12-4.9-7.06-5.75-3.27-.78-6.99-.13-10.26,1.83-5.75,3.72-7.38,11.56-3.59,17.44,2.94,4.9,7.51,6.66,14.5,5.88,0,0,3.27-.65,6.73-2.94,1.63-.98,3.72-.85,5.03.65,1.31,1.31,1.18,3.59-.46,4.7-5.1,3.59-10.13,4.44-10.45,4.44-9.67,1.11-16.86-1.83-21.43-9.02-5.68-9.08-3.07-21.36,5.88-27.05,4.9-2.94,10.65-3.92,15.88-2.61Z"/><path class="cls-2" d="m307.81,377.87c-5.55,2.42-12.28,7.51-14.7,9.6v16.01c0,1.76-1.5,3.4-3.46,3.4s-3.59-1.63-3.59-3.4v-32.34c0-1.96,1.63-3.59,3.59-3.59s3.46,1.63,3.46,3.59v7.51c3.59-2.61,7.97-5.55,12.41-7.51,1.63-.65,3.72.2,4.38,1.96.65,1.96-.33,3.92-2.09,4.77Z"/></svg>