<?xml version="1.0" encoding="UTF-8"?><svg id="_レイヤー_2" xmlns="http://www.w3.org/2000/svg" viewBox="0 0 841.89 92.08"><defs><style>.cls-1{fill:#f0e800;stroke-linecap:round;}.cls-1,.cls-2{stroke-miterlimit:10;stroke-width:3.49px;}.cls-1,.cls-2,.cls-3{stroke:#321b04;}.cls-2{fill:#e8b800;}.cls-3{fill:#321b04;}</style></defs><path class="cls-2" d="m663.15,70.02h0c0-4.38-3.55-7.93-7.93-7.93h-3.97v-6.96c0-1.87,1.52-3.39,3.39-3.39h16.44c4.38,0,7.93-3.55,7.93-7.93h0c0-4.38-3.55-7.93-7.93-7.93h-16.44c-1.87,0-3.39-1.52-3.39-3.39v-16.44c0-4.38-3.55-7.93-7.93-7.93h0c-4.38,0-7.93,3.55-7.93,7.93v16.44c0,1.87-1.52,3.39-3.39,3.39h-16.44c-4.38,0-7.93,3.55-7.93,7.93h0c0,4.38,3.55,7.93,7.93,7.93h16.44c1.87,0,3.39,1.52,3.39,3.39v14.89c0,4.38,3.55,7.93,7.93,7.93h11.9c4.38,0,7.93-3.55,7.93-7.93Z"/><line class="cls-1" x1="651.25" y1="62.09" x2="651.25" y2="69.35"/><path class="cls-3" d="m209.37,54.91c-1.08,20.88-18.63,26.28-27.9,26.28h-9c-3.6,0-6.3-2.88-6.3-6.3V13.06c0-2.7,2.07-4.95,4.77-4.95s4.68,2.25,4.68,4.95v57.78c0,.45.45.72.72.72h5.13c.72,0,17.37-.27,18.27-17.1.45-7.38-1.17-14.58-13.95-16.83-2.7-.45-4.77-2.7-4.77-5.4s2.25-4.5,4.95-4.32c20.25,3.42,24.12,16.47,23.4,27Z"/><path class="cls-3" d="m260.67,12.88v.63c0,2.7-2.25,4.95-4.68,4.95-2.7,0-4.95-2.25-4.95-4.95v-.63c0-2.7,2.25-4.77,4.95-4.77,2.43,0,4.68,2.07,4.68,4.77Zm0,19.08v44.28c0,2.7-2.25,4.95-4.68,4.95-2.7,0-4.95-2.25-4.95-4.95V31.96c0-2.7,2.25-4.95,4.95-4.95,2.43,0,4.68,2.25,4.68,4.95Z"/><path class="cls-3" d="m334.47,39.97c0,2.43-2.25,4.68-4.68,4.68h-7.47v31.86c0,2.43-2.25,4.68-4.68,4.68-2.7,0-4.95-2.25-4.95-4.68v-31.86h-7.2c-2.7,0-4.95-2.25-4.95-4.68,0-2.7,2.25-4.95,4.95-4.95h7.2V13.06c0-2.7,2.25-4.95,4.95-4.95,2.43,0,4.68,2.25,4.68,4.95v21.96h7.47c2.43,0,4.68,2.25,4.68,4.95Z"/><path class="cls-3" d="m405.75,39.97c0,2.43-2.25,4.68-4.68,4.68h-7.47v31.86c0,2.43-2.25,4.68-4.68,4.68-2.7,0-4.95-2.25-4.95-4.68v-31.86h-7.2c-2.7,0-4.95-2.25-4.95-4.68,0-2.7,2.25-4.95,4.95-4.95h7.2V13.06c0-2.7,2.25-4.95,4.95-4.95,2.43,0,4.68,2.25,4.68,4.95v21.96h7.47c2.43,0,4.68,2.25,4.68,4.95Z"/><path class="cls-3" d="m473.69,27.73c6.48,1.8,12.15,6.3,15.48,12.6,2.52,4.5,3.15,9,3.15,11.88,0,3.6-2.88,6.57-6.48,6.57h-22.05c-2.52,0-4.77-2.25-4.77-4.77,0-2.7,2.07-4.95,4.77-4.95h17.73c.45,0,.72-.18.45-.63-.18-1.35-.63-2.52-1.08-3.6-2.25-4.05-5.67-6.75-9.72-7.92-4.5-1.08-9.63-.18-14.13,2.52-7.92,5.13-10.17,15.93-4.95,24.03,4.05,6.75,10.35,9.18,19.98,8.1,0,0,4.5-.9,9.27-4.05,2.25-1.35,5.13-1.17,6.93.9,1.8,1.8,1.62,4.95-.63,6.48-7.02,4.95-13.95,6.12-14.4,6.12-13.32,1.53-23.22-2.52-29.52-12.42-7.83-12.51-4.23-29.43,8.1-37.26,6.75-4.05,14.67-5.4,21.87-3.6Z"/><path class="cls-3" d="m560.63,41.23c-7.65,3.33-16.92,10.35-20.25,13.23v22.05c0,2.43-2.07,4.68-4.77,4.68s-4.95-2.25-4.95-4.68V31.96c0-2.7,2.25-4.95,4.95-4.95s4.77,2.25,4.77,4.95v10.35c4.95-3.6,10.98-7.65,17.1-10.35,2.25-.9,5.13.27,6.03,2.7.9,2.7-.45,5.4-2.88,6.57Z"/></svg>