<?xml version="1.0" encoding="UTF-8"?><svg id="_レイヤー_1" xmlns="http://www.w3.org/2000/svg" viewBox="0 0 200 200"><defs><style>.cls-1{fill:#311b08;stroke-width:0px;}</style></defs><path class="cls-1" d="m178.43,43.84v111.42H22.57V43.84h155.85m2.01-17.4H20.56c-8.5,0-15.39,6.89-15.39,15.39v115.45c0,8.5,6.89,15.39,15.39,15.39h159.88c8.5,0,15.39-6.89,15.39-15.39V41.83c0-8.5-6.89-15.39-15.39-15.39h0Z"/><path class="cls-1" d="m153.8,43.84l-53.3,53.26-53.3-53.26h106.59m27.93-17.4H19.28c-5.2,0-7.81,6.29-4.13,9.97l81.22,81.17c1.14,1.14,2.63,1.71,4.13,1.71s2.99-.57,4.13-1.71l81.22-81.17c3.68-3.68,1.08-9.97-4.13-9.97h0Z"/></svg>