<?xml version="1.0" encoding="UTF-8"?><svg id="design" xmlns="http://www.w3.org/2000/svg" xmlns:xlink="http://www.w3.org/1999/xlink" viewBox="0 0 283.46 283.46"><defs><style>.cls-1{fill:url(#_10_dpi_40_);}.cls-1,.cls-2,.cls-3,.cls-4,.cls-5{stroke-width:0px;}.cls-2{fill:none;}.cls-3{fill:#321b04;}.cls-4{fill:#eaede6;}.cls-5{fill:#e8b800;}</style><pattern id="_10_dpi_40_" x="0" y="0" width="28.35" height="28.35" patternTransform="translate(-790.27 -292.95)" patternUnits="userSpaceOnUse" viewBox="0 0 28.35 28.35"><rect class="cls-2" x="0" width="28.35" height="28.35"/><path class="cls-3" d="m28.57,31.46c1.59,0,2.88-1.29,2.88-2.88s-1.29-2.88-2.88-2.88-2.88,1.29-2.88,2.88,1.29,2.88,2.88,2.88Z"/><path class="cls-3" d="m14.17,31.46c1.59,0,2.88-1.29,2.88-2.88s-1.29-2.88-2.88-2.88-2.88,1.29-2.88,2.88,1.29,2.88,2.88,2.88Z"/><path class="cls-3" d="m28.57,17.06c1.59,0,2.88-1.29,2.88-2.88s-1.29-2.88-2.88-2.88-2.88,1.29-2.88,2.88,1.29,2.88,2.88,2.88Z"/><path class="cls-3" d="m14.17,17.06c1.59,0,2.88-1.29,2.88-2.88s-1.29-2.88-2.88-2.88-2.88,1.29-2.88,2.88,1.29,2.88,2.88,2.88Z"/><path class="cls-3" d="m6.97,24.26c1.59,0,2.88-1.29,2.88-2.88s-1.29-2.88-2.88-2.88-2.88,1.29-2.88,2.88,1.29,2.88,2.88,2.88Z"/><path class="cls-3" d="m21.37,24.26c1.59,0,2.88-1.29,2.88-2.88s-1.29-2.88-2.88-2.88-2.88,1.29-2.88,2.88,1.29,2.88,2.88,2.88Z"/><path class="cls-3" d="m6.97,9.86c1.59,0,2.88-1.29,2.88-2.88s-1.29-2.88-2.88-2.88-2.88,1.29-2.88,2.88,1.29,2.88,2.88,2.88Z"/><path class="cls-3" d="m21.37,9.86c1.59,0,2.88-1.29,2.88-2.88s-1.29-2.88-2.88-2.88-2.88,1.29-2.88,2.88,1.29,2.88,2.88,2.88Z"/><path class="cls-3" d="m.23,31.46c1.59,0,2.88-1.29,2.88-2.88s-1.29-2.88-2.88-2.88-2.88,1.29-2.88,2.88,1.29,2.88,2.88,2.88Z"/><path class="cls-3" d="m.23,17.06c1.59,0,2.88-1.29,2.88-2.88s-1.29-2.88-2.88-2.88-2.88,1.29-2.88,2.88,1.29,2.88,2.88,2.88Z"/><path class="cls-3" d="m28.57,3.11c1.59,0,2.88-1.29,2.88-2.88s-1.29-2.88-2.88-2.88-2.88,1.29-2.88,2.88,1.29,2.88,2.88,2.88Z"/><path class="cls-3" d="m14.17,3.11c1.59,0,2.88-1.29,2.88-2.88s-1.29-2.88-2.88-2.88-2.88,1.29-2.88,2.88,1.29,2.88,2.88,2.88Z"/><path class="cls-3" d="m.23,3.11C1.82,3.11,3.11,1.82,3.11.23S1.82-2.65.23-2.65-2.65-1.36-2.65.23-1.36,3.11.23,3.11Z"/></pattern></defs><path class="cls-5" d="m141.73,118.98c-6.9,0-12.51-5.61-12.51-12.52s5.61-12.52,12.51-12.52,12.52,5.61,12.52,12.52-5.61,12.52-12.52,12.52Z"/><path class="cls-3" d="m141.73,96.96c5.24,0,9.51,4.27,9.51,9.51s-4.27,9.51-9.51,9.51-9.51-4.27-9.51-9.51,4.27-9.51,9.51-9.51m0-6.01c-8.57,0-15.52,6.95-15.52,15.52s6.95,15.52,15.52,15.52,15.52-6.95,15.52-15.52-6.95-15.52-15.52-15.52h0Z"/><rect class="cls-5" x="83.83" y="106.47" width="115.81" height="28.95" rx="12.56" ry="12.56"/><path class="cls-3" d="m187.08,114.97c2.24,0,4.06,1.82,4.06,4.06v3.83c0,2.24-1.82,4.06-4.06,4.06h-90.69c-2.24,0-4.06-1.82-4.06-4.06v-3.83c0-2.24,1.82-4.06,4.06-4.06h90.69m0-8.5h-90.69c-6.94,0-12.56,5.62-12.56,12.56v3.83c0,6.94,5.62,12.56,12.56,12.56h90.69c6.94,0,12.56-5.62,12.56-12.56v-3.83c0-6.94-5.62-12.56-12.56-12.56h0Z"/><rect class="cls-5" x="83.83" y="126.92" width="115.81" height="28.95" rx="12.56" ry="12.56"/><path class="cls-3" d="m187.08,135.42c2.24,0,4.06,1.82,4.06,4.06v3.83c0,2.24-1.82,4.06-4.06,4.06h-90.69c-2.24,0-4.06-1.82-4.06-4.06v-3.83c0-2.24,1.82-4.06,4.06-4.06h90.69m0-8.5h-90.69c-6.94,0-12.56,5.62-12.56,12.56v3.83c0,6.94,5.62,12.56,12.56,12.56h90.69c6.94,0,12.56-5.62,12.56-12.56v-3.83c0-6.94-5.62-12.56-12.56-12.56h0Z"/><rect class="cls-5" x="83.83" y="147.37" width="115.81" height="28.95" rx="12.56" ry="12.56"/><path class="cls-3" d="m187.08,155.87c2.24,0,4.06,1.82,4.06,4.06v3.83c0,2.24-1.82,4.06-4.06,4.06h-90.69c-2.24,0-4.06-1.82-4.06-4.06v-3.83c0-2.24,1.82-4.06,4.06-4.06h90.69m0-8.5h-90.69c-6.94,0-12.56,5.62-12.56,12.56v3.83c0,6.94,5.62,12.56,12.56,12.56h90.69c6.94,0,12.56-5.62,12.56-12.56v-3.83c0-6.94-5.62-12.56-12.56-12.56h0Z"/><path class="cls-4" d="m83.83,192.52h115.81l14.1-16.43c2.79-3.25.48-8.27-3.8-8.27H73.53c-4.28,0-6.59,5.02-3.8,8.27l14.1,16.43Z"/><path class="cls-3" d="m202.33,176.32l-6.6,7.69h-107.99l-6.6-7.69h121.2m7.6-8.5H73.53c-4.28,0-6.59,5.02-3.8,8.27l14.1,16.43h115.81l14.1-16.43c2.79-3.25.48-8.27-3.8-8.27h0Z"/><path class="cls-4" d="m145.87,152.86c-.62,0-1.12-.5-1.12-1.12v-42.26h39.86v30.07c0,.62-.5,1.12-1.12,1.12h-7.03c-.62,0-1.12-.5-1.12-1.12,0-3.94-3.2-7.14-7.14-7.14h-7.03c-3.94,0-7.14,3.2-7.14,7.14v12.19c0,.62-.5,1.12-1.12,1.12h-7.03Z"/><path class="cls-1" d="m145.87,152.86c-.62,0-1.12-.5-1.12-1.12v-42.26h39.86v30.07c0,.62-.5,1.12-1.12,1.12h-7.03c-.62,0-1.12-.5-1.12-1.12,0-3.94-3.2-7.14-7.14-7.14h-7.03c-3.94,0-7.14,3.2-7.14,7.14v12.19c0,.62-.5,1.12-1.12,1.12h-7.03Z"/><path class="cls-3" d="m181.59,112.48v25.18h-3.44c-.89-4.7-5.02-8.26-9.97-8.26h-7.03c-5.59,0-10.14,4.55-10.14,10.14v10.31h-3.26v-37.37h33.84m6.01-6.01h-45.87v45.27c0,2.28,1.85,4.13,4.13,4.13h7.03c2.28,0,4.13-1.85,4.13-4.13v-12.19c0-2.28,1.85-4.13,4.13-4.13h7.03c2.28,0,4.13,1.85,4.13,4.13s1.85,4.13,4.13,4.13h7.03c2.28,0,4.13-1.85,4.13-4.13v-33.08h0Z"/></svg>