<?xml version="1.0" encoding="UTF-8"?><svg id="_レイヤー_1" xmlns="http://www.w3.org/2000/svg" xmlns:xlink="http://www.w3.org/1999/xlink" viewBox="0 0 300 300"><defs><style>.cls-1{fill:url(#_10_dpi_40_);}.cls-1,.cls-2,.cls-3,.cls-4,.cls-5{stroke-width:0px;}.cls-2{fill:none;}.cls-3{fill:#321b04;}.cls-4{fill:#e98340;}.cls-5{fill:#e9ede5;}</style><pattern id="_10_dpi_40_" x="0" y="0" width="28.35" height="28.35" patternTransform="translate(3868.75 4754.68) scale(1.6)" patternUnits="userSpaceOnUse" viewBox="0 0 28.35 28.35"><rect class="cls-2" x="0" width="28.35" height="28.35"/><path class="cls-3" d="m28.57,31.46c1.59,0,2.88-1.29,2.88-2.88s-1.29-2.88-2.88-2.88-2.88,1.29-2.88,2.88,1.29,2.88,2.88,2.88Z"/><path class="cls-3" d="m14.17,31.46c1.59,0,2.88-1.29,2.88-2.88s-1.29-2.88-2.88-2.88-2.88,1.29-2.88,2.88,1.29,2.88,2.88,2.88Z"/><path class="cls-3" d="m28.57,17.06c1.59,0,2.88-1.29,2.88-2.88s-1.29-2.88-2.88-2.88-2.88,1.29-2.88,2.88,1.29,2.88,2.88,2.88Z"/><path class="cls-3" d="m14.17,17.06c1.59,0,2.88-1.29,2.88-2.88s-1.29-2.88-2.88-2.88-2.88,1.29-2.88,2.88,1.29,2.88,2.88,2.88Z"/><path class="cls-3" d="m6.97,24.26c1.59,0,2.88-1.29,2.88-2.88s-1.29-2.88-2.88-2.88-2.88,1.29-2.88,2.88,1.29,2.88,2.88,2.88Z"/><path class="cls-3" d="m21.37,24.26c1.59,0,2.88-1.29,2.88-2.88s-1.29-2.88-2.88-2.88-2.88,1.29-2.88,2.88,1.29,2.88,2.88,2.88Z"/><path class="cls-3" d="m6.97,9.86c1.59,0,2.88-1.29,2.88-2.88s-1.29-2.88-2.88-2.88-2.88,1.29-2.88,2.88,1.29,2.88,2.88,2.88Z"/><path class="cls-3" d="m21.37,9.86c1.59,0,2.88-1.29,2.88-2.88s-1.29-2.88-2.88-2.88-2.88,1.29-2.88,2.88,1.29,2.88,2.88,2.88Z"/><path class="cls-3" d="m.23,31.46c1.59,0,2.88-1.29,2.88-2.88s-1.29-2.88-2.88-2.88-2.88,1.29-2.88,2.88,1.29,2.88,2.88,2.88Z"/><path class="cls-3" d="m.23,17.06c1.59,0,2.88-1.29,2.88-2.88s-1.29-2.88-2.88-2.88-2.88,1.29-2.88,2.88,1.29,2.88,2.88,2.88Z"/><path class="cls-3" d="m28.57,3.11c1.59,0,2.88-1.29,2.88-2.88s-1.29-2.88-2.88-2.88-2.88,1.29-2.88,2.88,1.29,2.88,2.88,2.88Z"/><path class="cls-3" d="m14.17,3.11c1.59,0,2.88-1.29,2.88-2.88s-1.29-2.88-2.88-2.88-2.88,1.29-2.88,2.88,1.29,2.88,2.88,2.88Z"/><path class="cls-3" d="m.23,3.11C1.82,3.11,3.11,1.82,3.11.23S1.82-2.65.23-2.65-2.65-1.36-2.65.23-1.36,3.11.23,3.11Z"/></pattern></defs><polygon class="cls-4" points="106.8 250.92 92.84 187.44 212.47 188 202.02 250.92 106.8 250.92"/><path class="cls-3" d="m101.3,194.27l103.17.48-8.2,49.38h-84.01l-10.96-49.86m-16.9-13.66l16.95,77.09h106.43l12.7-76.46-136.08-.64h0Z"/><path class="cls-5" d="m177.11,211.77c-14.43,0-28.23-6.2-37.85-17l-2.38-2.67-3.55.45c-.41.05-.85.08-1.35.08-2.71,0-5.27-.85-7.41-2.47l-3.32-2.51-3.74,1.82c-4.31,2.1-8.94,3.16-13.77,3.16-17.36,0-31.49-14.12-31.49-31.49,0-10.35,5.09-20.05,13.63-25.95l3.62-2.5-.81-4.33c-.33-1.75-.49-3.6-.49-5.51,0-17.36,14.12-31.49,31.49-31.49h6.79v-6.79c0-17.36,14.13-31.49,31.5-31.49s31.49,14.12,31.49,31.49c0,.09,0,.18,0,.27l-.57,6.04,5.94,1.17c14.45,3.04,24.94,16,24.94,30.8,0,2.14-.22,4.3-.66,6.42l-.55,2.67,1.45,2.31c5.05,8.04,7.72,17.33,7.72,26.89,0,27.92-22.71,50.63-50.63,50.63Z"/><path class="cls-1" d="m177.11,211.77c-14.43,0-28.23-6.2-37.85-17l-2.38-2.67-3.55.45c-.41.05-.85.08-1.35.08-2.71,0-5.27-.85-7.41-2.47l-3.32-2.51-3.74,1.82c-4.31,2.1-8.94,3.16-13.77,3.16-17.36,0-31.49-14.12-31.49-31.49,0-10.35,5.09-20.05,13.63-25.95l3.62-2.5-.81-4.33c-.33-1.75-.49-3.6-.49-5.51,0-17.36,14.12-31.49,31.49-31.49h6.79v-6.79c0-17.36,14.13-31.49,31.5-31.49s31.49,14.12,31.49,31.49c0,.09,0,.18,0,.27l-.57,6.04,5.94,1.17c14.45,3.04,24.94,16,24.94,30.8,0,2.14-.22,4.3-.66,6.42l-.55,2.67,1.45,2.31c5.05,8.04,7.72,17.33,7.72,26.89,0,27.92-22.71,50.63-50.63,50.63Z"/><path class="cls-3" d="m157.98,59.87c13.59,0,24.65,11.03,24.7,24.61l-1.11,11.71,11.86,2.5c11.33,2.39,19.55,12.55,19.55,24.16,0,1.69-.17,3.39-.52,5.06l-1.1,5.34,2.9,4.62c4.37,6.95,6.68,15,6.68,23.27,0,24.18-19.67,43.84-43.84,43.84-12.5,0-24.44-5.37-32.78-14.73l-4.76-5.34-7.1.9c-.12.02-.29.02-.5.02-1.54,0-2.65-.6-3.31-1.1l-6.64-5.02-7.49,3.65c-3.38,1.64-7.01,2.48-10.79,2.48-13.62,0-24.7-11.08-24.7-24.7,0-8.12,4-15.73,10.7-20.37l7.24-5.01-1.62-8.65c-.25-1.34-.38-2.78-.38-4.26,0-13.62,11.08-24.7,24.7-24.7h13.58v-13.58c0-13.62,11.09-24.7,24.71-24.7m0-13.58c-21.14,0-38.29,17.13-38.29,38.28-21.14,0-38.28,17.13-38.28,38.28,0,2.3.2,4.56.61,6.76-10,6.91-16.55,18.46-16.55,31.53,0,21.14,17.13,38.28,38.28,38.28,6,0,11.69-1.39,16.74-3.85,3.2,2.42,7.18,3.85,11.5,3.85.75,0,1.48-.04,2.21-.13,10.52,11.82,25.85,19.28,42.92,19.28,31.72,0,57.42-25.72,57.42-57.42,0-11.21-3.21-21.67-8.77-30.5.52-2.51.79-5.12.79-7.79,0-18.42-13.01-33.79-30.33-37.44.03-.28.03-.56.03-.83,0-21.14-17.13-38.28-38.28-38.28h0Z"/><path class="cls-4" d="m119.17,113.06c-15.02,0-27.23-12.22-27.23-27.23s12.21-27.23,27.23-27.23,27.23,12.22,27.23,27.23-12.21,27.23-27.23,27.23Z"/><path class="cls-3" d="m119.17,65.39c11.27,0,20.44,9.17,20.44,20.44s-9.17,20.44-20.44,20.44-20.44-9.17-20.44-20.44,9.17-20.44,20.44-20.44m0-13.58c-18.79,0-34.02,15.23-34.02,34.02s15.23,34.02,34.02,34.02,34.02-15.23,34.02-34.02-15.23-34.02-34.02-34.02h0Z"/></svg>