<?xml version="1.0" encoding="UTF-8"?><svg id="design" xmlns="http://www.w3.org/2000/svg" xmlns:xlink="http://www.w3.org/1999/xlink" viewBox="0 0 283.46 283.46"><defs><style>.cls-1{fill:url(#_10_dpi_40_);}.cls-1,.cls-2,.cls-3,.cls-4,.cls-5{stroke-width:0px;}.cls-6{clip-path:url(#clippath);}.cls-2,.cls-7{fill:none;}.cls-7{stroke:#321b04;stroke-miterlimit:10;stroke-width:8.5px;}.cls-3{fill:#321b04;}.cls-4{fill:#eaede6;}.cls-5{fill:#e8b800;}</style><pattern id="_10_dpi_40_" x="0" y="0" width="28.35" height="28.35" patternTransform="translate(-790.11 -272.09)" patternUnits="userSpaceOnUse" viewBox="0 0 28.35 28.35"><rect class="cls-2" x="0" width="28.35" height="28.35"/><path class="cls-3" d="m28.57,31.46c1.59,0,2.88-1.29,2.88-2.88s-1.29-2.88-2.88-2.88-2.88,1.29-2.88,2.88,1.29,2.88,2.88,2.88Z"/><path class="cls-3" d="m14.17,31.46c1.59,0,2.88-1.29,2.88-2.88s-1.29-2.88-2.88-2.88-2.88,1.29-2.88,2.88,1.29,2.88,2.88,2.88Z"/><path class="cls-3" d="m28.57,17.06c1.59,0,2.88-1.29,2.88-2.88s-1.29-2.88-2.88-2.88-2.88,1.29-2.88,2.88,1.29,2.88,2.88,2.88Z"/><path class="cls-3" d="m14.17,17.06c1.59,0,2.88-1.29,2.88-2.88s-1.29-2.88-2.88-2.88-2.88,1.29-2.88,2.88,1.29,2.88,2.88,2.88Z"/><path class="cls-3" d="m6.97,24.26c1.59,0,2.88-1.29,2.88-2.88s-1.29-2.88-2.88-2.88-2.88,1.29-2.88,2.88,1.29,2.88,2.88,2.88Z"/><path class="cls-3" d="m21.37,24.26c1.59,0,2.88-1.29,2.88-2.88s-1.29-2.88-2.88-2.88-2.88,1.29-2.88,2.88,1.29,2.88,2.88,2.88Z"/><path class="cls-3" d="m6.97,9.86c1.59,0,2.88-1.29,2.88-2.88s-1.29-2.88-2.88-2.88-2.88,1.29-2.88,2.88,1.29,2.88,2.88,2.88Z"/><path class="cls-3" d="m21.37,9.86c1.59,0,2.88-1.29,2.88-2.88s-1.29-2.88-2.88-2.88-2.88,1.29-2.88,2.88,1.29,2.88,2.88,2.88Z"/><path class="cls-3" d="m.23,31.46c1.59,0,2.88-1.29,2.88-2.88s-1.29-2.88-2.88-2.88-2.88,1.29-2.88,2.88,1.29,2.88,2.88,2.88Z"/><path class="cls-3" d="m.23,17.06c1.59,0,2.88-1.29,2.88-2.88s-1.29-2.88-2.88-2.88-2.88,1.29-2.88,2.88,1.29,2.88,2.88,2.88Z"/><path class="cls-3" d="m28.57,3.11c1.59,0,2.88-1.29,2.88-2.88s-1.29-2.88-2.88-2.88-2.88,1.29-2.88,2.88,1.29,2.88,2.88,2.88Z"/><path class="cls-3" d="m14.17,3.11c1.59,0,2.88-1.29,2.88-2.88s-1.29-2.88-2.88-2.88-2.88,1.29-2.88,2.88,1.29,2.88,2.88,2.88Z"/><path class="cls-3" d="m.23,3.11C1.82,3.11,3.11,1.82,3.11.23S1.82-2.65.23-2.65-2.65-1.36-2.65.23-1.36,3.11.23,3.11Z"/></pattern><clipPath id="clippath"><path class="cls-2" d="m141.73,109.29c17.89,0,32.44,14.55,32.44,32.44s-14.55,32.44-32.44,32.44-32.44-14.55-32.44-32.44,14.55-32.44,32.44-32.44"/></clipPath></defs><path class="cls-5" d="m126.05,220.29c0-16.4-19.44-16.4-19.44-16.4h-14.48s0,33.43,0,33.43h14.48s19.45,0,19.44-17.04Z"/><path class="cls-3" d="m100.63,212.39h5.97s3.33.08,6.42,1.38c3.75,1.58,4.52,3.75,4.52,6.51,0,3.51-1.25,5.53-4.32,6.97-3.05,1.43-6.43,1.55-6.67,1.56h-5.92v-16.43m-8.5-8.5v33.43h14.48s19.44,0,19.44-17.03h0c0-16.4-19.44-16.4-19.44-16.4h-14.48Z"/><line class="cls-7" x1="119.27" y1="220.61" x2="207.94" y2="220.61"/><line class="cls-7" x1="119.27" y1="62.86" x2="207.94" y2="62.86"/><path class="cls-3" d="m92.13,216.36v8.5h-12.35c-2.35,0-4.25-1.9-4.25-4.25h0c0-2.35,1.9-4.25,4.25-4.25h12.35Z"/><path class="cls-3" d="m92.13,228.82v8.5h-12.35c-2.35,0-4.25-1.9-4.25-4.25h0c0-2.35,1.9-4.25,4.25-4.25h12.35Z"/><path class="cls-3" d="m92.13,203.89v8.5h-12.35c-2.35,0-4.25-1.9-4.25-4.25h0c0-2.35,1.9-4.25,4.25-4.25h12.35Z"/><path class="cls-5" d="m100.63,75.03c-11.15,0-20.56-5.57-20.56-12.17s9.42-12.17,20.56-12.17,20.56,5.57,20.56,12.17-9.42,12.17-20.56,12.17Z"/><path class="cls-3" d="m100.63,55.23c4.86,0,9.5,1.23,12.72,3.37,2.04,1.36,3.3,2.99,3.3,4.26s-1.27,2.9-3.3,4.26c-3.22,2.14-7.85,3.37-12.72,3.37s-9.5-1.23-12.72-3.37c-2.04-1.36-3.3-2.99-3.3-4.26s1.27-2.9,3.3-4.26c3.22-2.14,7.85-3.37,12.72-3.37m0-9.09c-13.87,0-25.11,7.48-25.11,16.72s11.24,16.72,25.11,16.72,25.11-7.48,25.11-16.72-11.24-16.72-25.11-16.72h0Z"/><path class="cls-4" d="m141.73,195.39c-29.58,0-53.65-24.07-53.65-53.65s24.07-53.65,53.65-53.65,53.65,24.07,53.65,53.65-24.07,53.65-53.65,53.65Z"/><path class="cls-1" d="m141.73,195.39c-29.58,0-53.65-24.07-53.65-53.65s24.07-53.65,53.65-53.65,53.65,24.07,53.65,53.65-24.07,53.65-53.65,53.65Z"/><path class="cls-3" d="m141.73,92.33c27.24,0,49.4,22.16,49.4,49.4s-22.16,49.4-49.4,49.4-49.4-22.16-49.4-49.4,22.16-49.4,49.4-49.4m0-8.5c-31.98,0-57.91,25.93-57.91,57.91s25.93,57.91,57.91,57.91,57.91-25.93,57.91-57.91-25.93-57.91-57.91-57.91h0Z"/><path class="cls-5" d="m141.73,178.43c-20.23,0-36.69-16.46-36.69-36.69s16.46-36.69,36.69-36.69,36.69,16.46,36.69,36.69-16.46,36.69-36.69,36.69Z"/><path class="cls-3" d="m141.73,109.29c17.89,0,32.44,14.55,32.44,32.44s-14.55,32.44-32.44,32.44-32.44-14.55-32.44-32.44,14.55-32.44,32.44-32.44m0-8.5c-22.61,0-40.95,18.33-40.95,40.95s18.33,40.95,40.95,40.95,40.95-18.33,40.95-40.95-18.33-40.95-40.95-40.95h0Z"/><g class="cls-6"><path class="cls-5" d="m145.79,179.1c-17.05,0-30.91-13.87-30.91-30.91s13.87-30.91,30.91-30.91,30.91,13.87,30.91,30.91-13.87,30.91-30.91,30.91Z"/><path class="cls-3" d="m145.79,120.28c15.39,0,27.91,12.52,27.91,27.91s-12.52,27.91-27.91,27.91-27.91-12.52-27.91-27.91,12.52-27.91,27.91-27.91m0-6.01c-18.73,0-33.92,15.19-33.92,33.92s15.19,33.92,33.92,33.92,33.92-15.19,33.92-33.92-15.19-33.92-33.92-33.92h0Z"/><circle class="cls-5" cx="145.79" cy="148.19" r="20.74"/><path class="cls-3" d="m145.79,130.46c9.78,0,17.73,7.95,17.73,17.73s-7.95,17.73-17.73,17.73-17.73-7.95-17.73-17.73,7.95-17.73,17.73-17.73m0-6.01c-13.11,0-23.74,10.63-23.74,23.74s10.63,23.74,23.74,23.74,23.74-10.63,23.74-23.74-10.63-23.74-23.74-23.74h0Z"/><circle class="cls-5" cx="145.79" cy="148.19" r="11.49"/><path class="cls-3" d="m145.79,139.24c4.94,0,8.95,4.02,8.95,8.95s-4.02,8.95-8.95,8.95-8.95-4.02-8.95-8.95,4.02-8.95,8.95-8.95m0-5.08c-7.75,0-14.03,6.28-14.03,14.03s6.28,14.03,14.03,14.03,14.03-6.28,14.03-14.03-6.28-14.03-14.03-14.03h0Z"/><path class="cls-5" d="m119.27,155.36c-17.05,0-30.92-13.87-30.92-30.91s13.87-30.91,30.92-30.91,30.91,13.87,30.91,30.91-13.87,30.91-30.91,30.91Z"/><path class="cls-3" d="m119.27,96.54c15.39,0,27.91,12.52,27.91,27.91s-12.52,27.91-27.91,27.91-27.91-12.52-27.91-27.91,12.52-27.91,27.91-27.91m0-6.01c-18.73,0-33.92,15.19-33.92,33.92s15.19,33.92,33.92,33.92,33.92-15.19,33.92-33.92-15.19-33.92-33.92-33.92h0Z"/><path class="cls-5" d="m119.27,145.18c-11.44,0-20.74-9.3-20.74-20.74s9.3-20.74,20.74-20.74,20.74,9.3,20.74,20.74-9.3,20.74-20.74,20.74Z"/><path class="cls-3" d="m119.27,106.71c9.78,0,17.73,7.95,17.73,17.73s-7.95,17.73-17.73,17.73-17.73-7.95-17.73-17.73,7.95-17.73,17.73-17.73m0-6.01c-13.11,0-23.74,10.63-23.74,23.74s10.63,23.74,23.74,23.74,23.74-10.63,23.74-23.74-10.63-23.74-23.74-23.74h0Z"/><path class="cls-5" d="m119.27,135.94c-6.34,0-11.49-5.15-11.49-11.49s5.15-11.49,11.49-11.49,11.49,5.16,11.49,11.49-5.15,11.49-11.49,11.49Z"/><path class="cls-3" d="m119.27,115.49c4.94,0,8.95,4.02,8.95,8.95s-4.02,8.95-8.95,8.95-8.95-4.02-8.95-8.95,4.02-8.95,8.95-8.95m0-5.08c-7.75,0-14.03,6.28-14.03,14.03s6.28,14.03,14.03,14.03,14.03-6.28,14.03-14.03-6.28-14.03-14.03-14.03h0Z"/><path class="cls-5" d="m129.69,202.85c-17.05,0-30.92-13.87-30.92-30.91s13.87-30.92,30.92-30.92,30.91,13.87,30.91,30.92-13.87,30.91-30.91,30.91Z"/><path class="cls-3" d="m129.68,144.03c15.39,0,27.91,12.52,27.91,27.91s-12.52,27.91-27.91,27.91-27.91-12.52-27.91-27.91,12.52-27.91,27.91-27.91m0-6.01c-18.73,0-33.92,15.19-33.92,33.92s15.19,33.92,33.92,33.92,33.92-15.19,33.92-33.92-15.19-33.92-33.92-33.92h0Z"/><path class="cls-5" d="m129.69,192.67c-11.44,0-20.74-9.3-20.74-20.74s9.3-20.74,20.74-20.74,20.74,9.3,20.74,20.74-9.3,20.74-20.74,20.74Z"/><path class="cls-3" d="m129.68,154.2c9.78,0,17.73,7.95,17.73,17.73s-7.95,17.73-17.73,17.73-17.73-7.95-17.73-17.73,7.95-17.73,17.73-17.73m0-6.01c-13.11,0-23.74,10.63-23.74,23.74s10.63,23.74,23.74,23.74,23.74-10.63,23.74-23.74-10.63-23.74-23.74-23.74h0Z"/><circle class="cls-5" cx="129.69" cy="171.94" r="11.49"/><path class="cls-3" d="m129.68,162.98c4.94,0,8.95,4.02,8.95,8.95s-4.02,8.95-8.95,8.95-8.95-4.02-8.95-8.95,4.02-8.95,8.95-8.95m0-5.08c-7.75,0-14.03,6.28-14.03,14.03s6.28,14.03,14.03,14.03,14.03-6.28,14.03-14.03-6.28-14.03-14.03-14.03h0Z"/></g></svg>